<mxfile host="app.diagrams.net" modified="2021-08-08T13:35:11.668Z" agent="5.0 (Windows NT 10.0; Win64; x64) AppleWebKit/537.36 (KHTML, like Gecko) Chrome/92.0.4515.131 Safari/537.36" etag="n_8FryknL0cZ4oVvirnL" version="14.9.5" type="github">
  <diagram id="-HU0tnw_aj-QByQzzZIc" name="Page-1">
    <mxGraphModel dx="1634" dy="838" grid="1" gridSize="10" guides="1" tooltips="1" connect="1" arrows="1" fold="1" page="1" pageScale="1" pageWidth="2336" pageHeight="1654" math="0" shadow="0">
      <root>
        <mxCell id="0" />
        <mxCell id="1" parent="0" />
        <mxCell id="XwEQovFYGwXoTj2P0Iut-1" value="Chemical Bath" style="rounded=0;whiteSpace=wrap;html=1;fillColor=#f5f5f5;strokeColor=#666666;fontColor=#333333;" parent="1" vertex="1">
          <mxGeometry x="40" y="80" width="160" height="20" as="geometry" />
        </mxCell>
        <mxCell id="XwEQovFYGwXoTj2P0Iut-2" value="Deep Iron Dust x1" style="rounded=0;whiteSpace=wrap;html=1;fillColor=#d5e8d4;strokeColor=#82b366;" parent="1" vertex="1">
          <mxGeometry x="40" y="100" width="160" height="20" as="geometry" />
        </mxCell>
        <mxCell id="XwEQovFYGwXoTj2P0Iut-3" value="Sulfuric Acid x 1000L" style="rounded=0;whiteSpace=wrap;html=1;fillColor=#d5e8d4;strokeColor=#82b366;" parent="1" vertex="1">
          <mxGeometry x="40" y="120" width="160" height="20" as="geometry" />
        </mxCell>
        <mxCell id="XwEQovFYGwXoTj2P0Iut-4" value="480 eu/t&lt;span style=&quot;color: rgba(0 , 0 , 0 , 0) ; font-family: monospace ; font-size: 0px&quot;&gt;%3CmxGraphModel%3E%3Croot%3E%3CmxCell%20id%3D%220%22%2F%3E%3CmxCell%20id%3D%221%22%20parent%3D%220%22%2F%3E%3CmxCell%20id%3D%222%22%20value%3D%22Mixer%22%20style%3D%22rounded%3D0%3BwhiteSpace%3Dwrap%3Bhtml%3D1%3BfillColor%3D%23f5f5f5%3BstrokeColor%3D%23666666%3BfontColor%3D%23333333%3B%22%20vertex%3D%221%22%20parent%3D%221%22%3E%3CmxGeometry%20x%3D%2280%22%20y%3D%2240%22%20width%3D%22120%22%20height%3D%2240%22%20as%3D%22geometry%22%2F%3E%3C%2FmxCell%3E%3C%2Froot%3E%3C%2FmxGraphModel%3E&lt;/span&gt;" style="rounded=0;whiteSpace=wrap;html=1;fillColor=#dae8fc;strokeColor=#6c8ebf;" parent="1" vertex="1">
          <mxGeometry x="40" y="140" width="160" height="20" as="geometry" />
        </mxCell>
        <mxCell id="XwEQovFYGwXoTj2P0Iut-5" value="100 t&lt;span style=&quot;color: rgba(0 , 0 , 0 , 0) ; font-family: monospace ; font-size: 0px&quot;&gt;%3CmxGraphModel%3E%3Croot%3E%3CmxCell%20id%3D%220%22%2F%3E%3CmxCell%20id%3D%221%22%20parent%3D%220%22%2F%3E%3CmxCell%20id%3D%222%22%20value%3D%22Mixer%22%20style%3D%22rounded%3D0%3BwhiteSpace%3Dwrap%3Bhtml%3D1%3BfillColor%3D%23f5f5f5%3BstrokeColor%3D%23666666%3BfontColor%3D%23333333%3B%22%20vertex%3D%221%22%20parent%3D%221%22%3E%3CmxGeometry%20x%3D%2280%22%20y%3D%2240%22%20width%3D%22120%22%20height%3D%2240%22%20as%3D%22geometry%22%2F%3E%3C%2FmxCell%3E%3C%2Froot%3E%3C%2FmxGraphModel%3E&lt;/span&gt;" style="rounded=0;whiteSpace=wrap;html=1;fillColor=#dae8fc;strokeColor=#6c8ebf;" parent="1" vertex="1">
          <mxGeometry x="40" y="160" width="160" height="20" as="geometry" />
        </mxCell>
        <mxCell id="XwEQovFYGwXoTj2P0Iut-6" value="&lt;font style=&quot;font-size: 12px&quot;&gt;Deep Iron Pellets Dust x3&lt;/font&gt;" style="rounded=0;whiteSpace=wrap;html=1;fillColor=#f8cecc;strokeColor=#b85450;" parent="1" vertex="1">
          <mxGeometry x="40" y="180" width="160" height="20" as="geometry" />
        </mxCell>
        <mxCell id="XwEQovFYGwXoTj2P0Iut-7" value="EBF 4500K" style="rounded=0;whiteSpace=wrap;html=1;fillColor=#f5f5f5;strokeColor=#666666;fontColor=#333333;" parent="1" vertex="1">
          <mxGeometry x="280" y="80" width="160" height="20" as="geometry" />
        </mxCell>
        <mxCell id="XwEQovFYGwXoTj2P0Iut-8" value="&lt;font style=&quot;font-size: 12px&quot;&gt;Deep Iron Pellets Dust x6&lt;/font&gt;" style="rounded=0;whiteSpace=wrap;html=1;fillColor=#d5e8d4;strokeColor=#82b366;" parent="1" vertex="1">
          <mxGeometry x="280" y="100" width="160" height="20" as="geometry" />
        </mxCell>
        <mxCell id="XwEQovFYGwXoTj2P0Iut-9" value="&lt;font style=&quot;font-size: 12px&quot;&gt;Oxygen x6000L&lt;/font&gt;" style="rounded=0;whiteSpace=wrap;html=1;fillColor=#d5e8d4;strokeColor=#82b366;" parent="1" vertex="1">
          <mxGeometry x="280" y="120" width="160" height="20" as="geometry" />
        </mxCell>
        <mxCell id="XwEQovFYGwXoTj2P0Iut-10" value="7680 eu/t&lt;span style=&quot;color: rgba(0 , 0 , 0 , 0) ; font-family: monospace ; font-size: 0px&quot;&gt;%3CmxGraphModel%3E%3Croot%3E%3CmxCell%20id%3D%220%22%2F%3E%3CmxCell%20id%3D%221%22%20parent%3D%220%22%2F%3E%3CmxCell%20id%3D%222%22%20value%3D%22Mixer%22%20style%3D%22rounded%3D0%3BwhiteSpace%3Dwrap%3Bhtml%3D1%3BfillColor%3D%23f5f5f5%3BstrokeColor%3D%23666666%3BfontColor%3D%23333333%3B%22%20vertex%3D%221%22%20parent%3D%221%22%3E%3CmxGeometry%20x%3D%2280%22%20y%3D%2240%22%20width%3D%22120%22%20height%3D%2240%22%20as%3D%22geometry%22%2F%3E%3C%2FmxCell%3E%3C%2Froot%3E%3C%2FmxGraphModel%3E&lt;/span&gt;" style="rounded=0;whiteSpace=wrap;html=1;fillColor=#dae8fc;strokeColor=#6c8ebf;" parent="1" vertex="1">
          <mxGeometry x="280" y="140" width="160" height="20" as="geometry" />
        </mxCell>
        <mxCell id="XwEQovFYGwXoTj2P0Iut-11" value="80 t&lt;span style=&quot;color: rgba(0 , 0 , 0 , 0) ; font-family: monospace ; font-size: 0px&quot;&gt;%3CmxGraphModel%3E%3Croot%3E%3CmxCell%20id%3D%220%22%2F%3E%3CmxCell%20id%3D%221%22%20parent%3D%220%22%2F%3E%3CmxCell%20id%3D%222%22%20value%3D%22Mixer%22%20style%3D%22rounded%3D0%3BwhiteSpace%3Dwrap%3Bhtml%3D1%3BfillColor%3D%23f5f5f5%3BstrokeColor%3D%23666666%3BfontColor%3D%23333333%3B%22%20vertex%3D%221%22%20parent%3D%221%22%3E%3CmxGeometry%20x%3D%2280%22%20y%3D%2240%22%20width%3D%22120%22%20height%3D%2240%22%20as%3D%22geometry%22%2F%3E%3C%2FmxCell%3E%3C%2Froot%3E%3C%2FmxGraphModel%3E&lt;/span&gt;" style="rounded=0;whiteSpace=wrap;html=1;fillColor=#dae8fc;strokeColor=#6c8ebf;" parent="1" vertex="1">
          <mxGeometry x="280" y="160" width="160" height="20" as="geometry" />
        </mxCell>
        <mxCell id="XwEQovFYGwXoTj2P0Iut-12" value="&lt;font style=&quot;font-size: 12px&quot;&gt;Triniite Dust x4&lt;/font&gt;" style="rounded=0;whiteSpace=wrap;html=1;fillColor=#f8cecc;strokeColor=#b85450;" parent="1" vertex="1">
          <mxGeometry x="280" y="180" width="160" height="20" as="geometry" />
        </mxCell>
        <mxCell id="XwEQovFYGwXoTj2P0Iut-13" value="&lt;font style=&quot;font-size: 12px&quot;&gt;Deep Iron Residual Slag x8&lt;/font&gt;" style="rounded=0;whiteSpace=wrap;html=1;fillColor=#f8cecc;strokeColor=#b85450;" parent="1" vertex="1">
          <mxGeometry x="280" y="200" width="160" height="20" as="geometry" />
        </mxCell>
        <mxCell id="XwEQovFYGwXoTj2P0Iut-15" value="" style="endArrow=classic;html=1;exitX=1;exitY=0.5;exitDx=0;exitDy=0;entryX=0;entryY=0.5;entryDx=0;entryDy=0;rounded=0;endSize=10;startSize=10;jumpSize=6;strokeWidth=3;" parent="1" source="XwEQovFYGwXoTj2P0Iut-6" target="XwEQovFYGwXoTj2P0Iut-8" edge="1">
          <mxGeometry width="50" height="50" relative="1" as="geometry">
            <mxPoint x="320" y="210" as="sourcePoint" />
            <mxPoint x="370" y="160" as="targetPoint" />
            <Array as="points">
              <mxPoint x="240" y="190" />
              <mxPoint x="240" y="110" />
            </Array>
          </mxGeometry>
        </mxCell>
        <mxCell id="XwEQovFYGwXoTj2P0Iut-32" value="Electrolyzer" style="rounded=0;whiteSpace=wrap;html=1;fillColor=#f5f5f5;strokeColor=#666666;fontColor=#333333;" parent="1" vertex="1">
          <mxGeometry x="280" y="640" width="160" height="20" as="geometry" />
        </mxCell>
        <mxCell id="XwEQovFYGwXoTj2P0Iut-34" value="480 eu/t&lt;span style=&quot;color: rgba(0 , 0 , 0 , 0) ; font-family: monospace ; font-size: 0px&quot;&gt;%3CmxGraphModel%3E%3Croot%3E%3CmxCell%20id%3D%220%22%2F%3E%3CmxCell%20id%3D%221%22%20parent%3D%220%22%2F%3E%3CmxCell%20id%3D%222%22%20value%3D%22Mixer%22%20style%3D%22rounded%3D0%3BwhiteSpace%3Dwrap%3Bhtml%3D1%3BfillColor%3D%23f5f5f5%3BstrokeColor%3D%23666666%3BfontColor%3D%23333333%3B%22%20vertex%3D%221%22%20parent%3D%221%22%3E%3CmxGeometry%20x%3D%2280%22%20y%3D%2240%22%20width%3D%22120%22%20height%3D%2240%22%20as%3D%22geometry%22%2F%3E%3C%2FmxCell%3E%3C%2Froot%3E%3C%2FmxGraphModel%3E&lt;/span&gt;" style="rounded=0;whiteSpace=wrap;html=1;fillColor=#dae8fc;strokeColor=#6c8ebf;" parent="1" vertex="1">
          <mxGeometry x="280" y="680" width="160" height="20" as="geometry" />
        </mxCell>
        <mxCell id="XwEQovFYGwXoTj2P0Iut-35" value="50 t&lt;span style=&quot;color: rgba(0 , 0 , 0 , 0) ; font-family: monospace ; font-size: 0px&quot;&gt;%3CmxGraphModel%3E%3Croot%3E%3CmxCell%20id%3D%220%22%2F%3E%3CmxCell%20id%3D%221%22%20parent%3D%220%22%2F%3E%3CmxCell%20id%3D%222%22%20value%3D%22Mixer%22%20style%3D%22rounded%3D0%3BwhiteSpace%3Dwrap%3Bhtml%3D1%3BfillColor%3D%23f5f5f5%3BstrokeColor%3D%23666666%3BfontColor%3D%23333333%3B%22%20vertex%3D%221%22%20parent%3D%221%22%3E%3CmxGeometry%20x%3D%2280%22%20y%3D%2240%22%20width%3D%22120%22%20height%3D%2240%22%20as%3D%22geometry%22%2F%3E%3C%2FmxCell%3E%3C%2Froot%3E%3C%2FmxGraphModel%3E&lt;/span&gt;" style="rounded=0;whiteSpace=wrap;html=1;fillColor=#dae8fc;strokeColor=#6c8ebf;" parent="1" vertex="1">
          <mxGeometry x="280" y="700" width="160" height="20" as="geometry" />
        </mxCell>
        <mxCell id="XwEQovFYGwXoTj2P0Iut-37" value="&lt;font style=&quot;font-size: 12px&quot;&gt;Sodium Dust x2&lt;/font&gt;" style="rounded=0;whiteSpace=wrap;html=1;fillColor=#f8cecc;strokeColor=#b85450;" parent="1" vertex="1">
          <mxGeometry x="280" y="740" width="160" height="20" as="geometry" />
        </mxCell>
        <mxCell id="XwEQovFYGwXoTj2P0Iut-38" value="&lt;font style=&quot;font-size: 12px&quot;&gt;Phosphorus Dust x1&lt;/font&gt;" style="rounded=0;whiteSpace=wrap;html=1;fillColor=#f8cecc;strokeColor=#b85450;" parent="1" vertex="1">
          <mxGeometry x="280" y="720" width="160" height="20" as="geometry" />
        </mxCell>
        <mxCell id="XwEQovFYGwXoTj2P0Iut-40" value="Electrolyzer" style="rounded=0;whiteSpace=wrap;html=1;fillColor=#f5f5f5;strokeColor=#666666;fontColor=#333333;" parent="1" vertex="1">
          <mxGeometry x="280" y="840" width="160" height="20" as="geometry" />
        </mxCell>
        <mxCell id="XwEQovFYGwXoTj2P0Iut-41" value="&lt;font style=&quot;font-size: 12px&quot;&gt;Iron Pure Mixture x1000L&lt;/font&gt;" style="rounded=0;whiteSpace=wrap;html=1;fillColor=#d5e8d4;strokeColor=#82b366;" parent="1" vertex="1">
          <mxGeometry x="280" y="860" width="160" height="20" as="geometry" />
        </mxCell>
        <mxCell id="XwEQovFYGwXoTj2P0Iut-42" value="800 eu/t&lt;span style=&quot;color: rgba(0 , 0 , 0 , 0) ; font-family: monospace ; font-size: 0px&quot;&gt;%3CmxGraphModel%3E%3Croot%3E%3CmxCell%20id%3D%220%22%2F%3E%3CmxCell%20id%3D%221%22%20parent%3D%220%22%2F%3E%3CmxCell%20id%3D%222%22%20value%3D%22Mixer%22%20style%3D%22rounded%3D0%3BwhiteSpace%3Dwrap%3Bhtml%3D1%3BfillColor%3D%23f5f5f5%3BstrokeColor%3D%23666666%3BfontColor%3D%23333333%3B%22%20vertex%3D%221%22%20parent%3D%221%22%3E%3CmxGeometry%20x%3D%2280%22%20y%3D%2240%22%20width%3D%22120%22%20height%3D%2240%22%20as%3D%22geometry%22%2F%3E%3C%2FmxCell%3E%3C%2Froot%3E%3C%2FmxGraphModel%3E&lt;/span&gt;" style="rounded=0;whiteSpace=wrap;html=1;fillColor=#dae8fc;strokeColor=#6c8ebf;" parent="1" vertex="1">
          <mxGeometry x="280" y="880" width="160" height="20" as="geometry" />
        </mxCell>
        <mxCell id="XwEQovFYGwXoTj2P0Iut-43" value="130 t&lt;span style=&quot;color: rgba(0 , 0 , 0 , 0) ; font-family: monospace ; font-size: 0px&quot;&gt;%3CmxGraphModel%3E%3Croot%3E%3CmxCell%20id%3D%220%22%2F%3E%3CmxCell%20id%3D%221%22%20parent%3D%220%22%2F%3E%3CmxCell%20id%3D%222%22%20value%3D%22Mixer%22%20style%3D%22rounded%3D0%3BwhiteSpace%3Dwrap%3Bhtml%3D1%3BfillColor%3D%23f5f5f5%3BstrokeColor%3D%23666666%3BfontColor%3D%23333333%3B%22%20vertex%3D%221%22%20parent%3D%221%22%3E%3CmxGeometry%20x%3D%2280%22%20y%3D%2240%22%20width%3D%22120%22%20height%3D%2240%22%20as%3D%22geometry%22%2F%3E%3C%2FmxCell%3E%3C%2Froot%3E%3C%2FmxGraphModel%3E&lt;/span&gt;" style="rounded=0;whiteSpace=wrap;html=1;fillColor=#dae8fc;strokeColor=#6c8ebf;" parent="1" vertex="1">
          <mxGeometry x="280" y="900" width="160" height="20" as="geometry" />
        </mxCell>
        <mxCell id="XwEQovFYGwXoTj2P0Iut-44" value="&lt;font style=&quot;font-size: 12px&quot;&gt;Indium Hydroxide x7&lt;/font&gt;" style="rounded=0;whiteSpace=wrap;html=1;fillColor=#f8cecc;strokeColor=#b85450;" parent="1" vertex="1">
          <mxGeometry x="280" y="940" width="160" height="20" as="geometry" />
        </mxCell>
        <mxCell id="XwEQovFYGwXoTj2P0Iut-45" value="&lt;font style=&quot;font-size: 12px&quot;&gt;Iron Dust x2&lt;/font&gt;" style="rounded=0;whiteSpace=wrap;html=1;fillColor=#f8cecc;strokeColor=#b85450;" parent="1" vertex="1">
          <mxGeometry x="280" y="920" width="160" height="20" as="geometry" />
        </mxCell>
        <mxCell id="XwEQovFYGwXoTj2P0Iut-47" value="Chemical Reactor" style="rounded=0;whiteSpace=wrap;html=1;fillColor=#f5f5f5;strokeColor=#666666;fontColor=#333333;" parent="1" vertex="1">
          <mxGeometry x="280" y="1000" width="160" height="20" as="geometry" />
        </mxCell>
        <mxCell id="XwEQovFYGwXoTj2P0Iut-48" value="&lt;font style=&quot;font-size: 12px&quot;&gt;Indium Hydroxide x7&lt;/font&gt;" style="rounded=0;whiteSpace=wrap;html=1;fillColor=#d5e8d4;strokeColor=#82b366;" parent="1" vertex="1">
          <mxGeometry x="280" y="1020" width="160" height="20" as="geometry" />
        </mxCell>
        <mxCell id="XwEQovFYGwXoTj2P0Iut-49" value="&lt;font style=&quot;font-size: 12px&quot;&gt;Hydrogen x3000L&lt;/font&gt;" style="rounded=0;whiteSpace=wrap;html=1;fillColor=#d5e8d4;strokeColor=#82b366;" parent="1" vertex="1">
          <mxGeometry x="280" y="1040" width="160" height="20" as="geometry" />
        </mxCell>
        <mxCell id="XwEQovFYGwXoTj2P0Iut-50" value="120 eu/t&lt;span style=&quot;color: rgba(0 , 0 , 0 , 0) ; font-family: monospace ; font-size: 0px&quot;&gt;%3CmxGraphModel%3E%3Croot%3E%3CmxCell%20id%3D%220%22%2F%3E%3CmxCell%20id%3D%221%22%20parent%3D%220%22%2F%3E%3CmxCell%20id%3D%222%22%20value%3D%22Mixer%22%20style%3D%22rounded%3D0%3BwhiteSpace%3Dwrap%3Bhtml%3D1%3BfillColor%3D%23f5f5f5%3BstrokeColor%3D%23666666%3BfontColor%3D%23333333%3B%22%20vertex%3D%221%22%20parent%3D%221%22%3E%3CmxGeometry%20x%3D%2280%22%20y%3D%2240%22%20width%3D%22120%22%20height%3D%2240%22%20as%3D%22geometry%22%2F%3E%3C%2FmxCell%3E%3C%2Froot%3E%3C%2FmxGraphModel%3E&lt;/span&gt;" style="rounded=0;whiteSpace=wrap;html=1;fillColor=#dae8fc;strokeColor=#6c8ebf;" parent="1" vertex="1">
          <mxGeometry x="280" y="1060" width="160" height="20" as="geometry" />
        </mxCell>
        <mxCell id="XwEQovFYGwXoTj2P0Iut-51" value="120 t&lt;span style=&quot;color: rgba(0 , 0 , 0 , 0) ; font-family: monospace ; font-size: 0px&quot;&gt;%3CmxGraphModel%3E%3Croot%3E%3CmxCell%20id%3D%220%22%2F%3E%3CmxCell%20id%3D%221%22%20parent%3D%220%22%2F%3E%3CmxCell%20id%3D%222%22%20value%3D%22Mixer%22%20style%3D%22rounded%3D0%3BwhiteSpace%3Dwrap%3Bhtml%3D1%3BfillColor%3D%23f5f5f5%3BstrokeColor%3D%23666666%3BfontColor%3D%23333333%3B%22%20vertex%3D%221%22%20parent%3D%221%22%3E%3CmxGeometry%20x%3D%2280%22%20y%3D%2240%22%20width%3D%22120%22%20height%3D%2240%22%20as%3D%22geometry%22%2F%3E%3C%2FmxCell%3E%3C%2Froot%3E%3C%2FmxGraphModel%3E&lt;/span&gt;" style="rounded=0;whiteSpace=wrap;html=1;fillColor=#dae8fc;strokeColor=#6c8ebf;" parent="1" vertex="1">
          <mxGeometry x="280" y="1080" width="160" height="20" as="geometry" />
        </mxCell>
        <mxCell id="XwEQovFYGwXoTj2P0Iut-52" value="&lt;font style=&quot;font-size: 12px&quot;&gt;Steam x3000L&lt;/font&gt;" style="rounded=0;whiteSpace=wrap;html=1;fillColor=#f8cecc;strokeColor=#b85450;" parent="1" vertex="1">
          <mxGeometry x="280" y="1120" width="160" height="20" as="geometry" />
        </mxCell>
        <mxCell id="XwEQovFYGwXoTj2P0Iut-53" value="&lt;font style=&quot;font-size: 12px&quot;&gt;Indium Dust x1&lt;/font&gt;" style="rounded=0;whiteSpace=wrap;html=1;fillColor=#f8cecc;strokeColor=#b85450;" parent="1" vertex="1">
          <mxGeometry x="280" y="1100" width="160" height="20" as="geometry" />
        </mxCell>
        <mxCell id="XwEQovFYGwXoTj2P0Iut-54" value="" style="endArrow=classic;html=1;exitX=1;exitY=0.5;exitDx=0;exitDy=0;rounded=0;entryX=0;entryY=0.5;entryDx=0;entryDy=0;" parent="1" source="XwEQovFYGwXoTj2P0Iut-44" target="XwEQovFYGwXoTj2P0Iut-48" edge="1">
          <mxGeometry width="50" height="50" relative="1" as="geometry">
            <mxPoint x="560" y="990" as="sourcePoint" />
            <mxPoint x="610" y="940" as="targetPoint" />
            <Array as="points">
              <mxPoint x="460" y="950" />
              <mxPoint x="460" y="980" />
              <mxPoint x="260" y="980" />
              <mxPoint x="260" y="1030" />
            </Array>
          </mxGeometry>
        </mxCell>
        <mxCell id="XwEQovFYGwXoTj2P0Iut-62" value="Chemical Reactor" style="rounded=0;whiteSpace=wrap;html=1;fillColor=#f5f5f5;strokeColor=#666666;fontColor=#333333;" parent="1" vertex="1">
          <mxGeometry x="280" y="260" width="160" height="20" as="geometry" />
        </mxCell>
        <mxCell id="XwEQovFYGwXoTj2P0Iut-63" value="&lt;font style=&quot;font-size: 12px&quot;&gt;Deep Iron Residual Slag x4&lt;/font&gt;" style="rounded=0;whiteSpace=wrap;html=1;fillColor=#d5e8d4;strokeColor=#82b366;" parent="1" vertex="1">
          <mxGeometry x="280" y="280" width="160" height="20" as="geometry" />
        </mxCell>
        <mxCell id="XwEQovFYGwXoTj2P0Iut-64" value="&lt;font style=&quot;font-size: 12px&quot;&gt;Phosphoric Acid x3000L&lt;/font&gt;" style="rounded=0;whiteSpace=wrap;html=1;fillColor=#d5e8d4;strokeColor=#82b366;" parent="1" vertex="1">
          <mxGeometry x="280" y="300" width="160" height="20" as="geometry" />
        </mxCell>
        <mxCell id="XwEQovFYGwXoTj2P0Iut-65" value="1400 eu/t&lt;span style=&quot;color: rgba(0 , 0 , 0 , 0) ; font-family: monospace ; font-size: 0px&quot;&gt;%3CmxGraphModel%3E%3Croot%3E%3CmxCell%20id%3D%220%22%2F%3E%3CmxCell%20id%3D%221%22%20parent%3D%220%22%2F%3E%3CmxCell%20id%3D%222%22%20value%3D%22Mixer%22%20style%3D%22rounded%3D0%3BwhiteSpace%3Dwrap%3Bhtml%3D1%3BfillColor%3D%23f5f5f5%3BstrokeColor%3D%23666666%3BfontColor%3D%23333333%3B%22%20vertex%3D%221%22%20parent%3D%221%22%3E%3CmxGeometry%20x%3D%2280%22%20y%3D%2240%22%20width%3D%22120%22%20height%3D%2240%22%20as%3D%22geometry%22%2F%3E%3C%2FmxCell%3E%3C%2Froot%3E%3C%2FmxGraphModel%3E&lt;/span&gt;" style="rounded=0;whiteSpace=wrap;html=1;fillColor=#dae8fc;strokeColor=#6c8ebf;" parent="1" vertex="1">
          <mxGeometry x="280" y="320" width="160" height="20" as="geometry" />
        </mxCell>
        <mxCell id="XwEQovFYGwXoTj2P0Iut-66" value="180 t&lt;span style=&quot;color: rgba(0 , 0 , 0 , 0) ; font-family: monospace ; font-size: 0px&quot;&gt;%3CmxGraphModel%3E%3Croot%3E%3CmxCell%20id%3D%220%22%2F%3E%3CmxCell%20id%3D%221%22%20parent%3D%220%22%2F%3E%3CmxCell%20id%3D%222%22%20value%3D%22Mixer%22%20style%3D%22rounded%3D0%3BwhiteSpace%3Dwrap%3Bhtml%3D1%3BfillColor%3D%23f5f5f5%3BstrokeColor%3D%23666666%3BfontColor%3D%23333333%3B%22%20vertex%3D%221%22%20parent%3D%221%22%3E%3CmxGeometry%20x%3D%2280%22%20y%3D%2240%22%20width%3D%22120%22%20height%3D%2240%22%20as%3D%22geometry%22%2F%3E%3C%2FmxCell%3E%3C%2Froot%3E%3C%2FmxGraphModel%3E&lt;/span&gt;" style="rounded=0;whiteSpace=wrap;html=1;fillColor=#dae8fc;strokeColor=#6c8ebf;" parent="1" vertex="1">
          <mxGeometry x="280" y="340" width="160" height="20" as="geometry" />
        </mxCell>
        <mxCell id="XwEQovFYGwXoTj2P0Iut-67" value="&lt;font style=&quot;font-size: 10px&quot;&gt;Seperated Metal Rich Slag x2000L&lt;/font&gt;" style="rounded=0;whiteSpace=wrap;html=1;fillColor=#f8cecc;strokeColor=#b85450;" parent="1" vertex="1">
          <mxGeometry x="280" y="380" width="160" height="20" as="geometry" />
        </mxCell>
        <mxCell id="XwEQovFYGwXoTj2P0Iut-68" value="&lt;font style=&quot;font-size: 12px&quot;&gt;Rariest Earth Metal Dust x5&lt;/font&gt;" style="rounded=0;whiteSpace=wrap;html=1;fillColor=#f8cecc;strokeColor=#b85450;" parent="1" vertex="1">
          <mxGeometry x="280" y="360" width="160" height="20" as="geometry" />
        </mxCell>
        <mxCell id="XwEQovFYGwXoTj2P0Iut-69" value="" style="endArrow=classic;html=1;exitX=1;exitY=0.5;exitDx=0;exitDy=0;rounded=0;entryX=0;entryY=0.5;entryDx=0;entryDy=0;" parent="1" source="XwEQovFYGwXoTj2P0Iut-13" target="XwEQovFYGwXoTj2P0Iut-63" edge="1">
          <mxGeometry width="50" height="50" relative="1" as="geometry">
            <mxPoint x="370" y="310" as="sourcePoint" />
            <mxPoint x="420" y="260" as="targetPoint" />
            <Array as="points">
              <mxPoint x="460" y="210" />
              <mxPoint x="460" y="240" />
              <mxPoint x="260" y="240" />
              <mxPoint x="260" y="290" />
            </Array>
          </mxGeometry>
        </mxCell>
        <mxCell id="XwEQovFYGwXoTj2P0Iut-70" value="Chemical Reactor" style="rounded=0;whiteSpace=wrap;html=1;fillColor=#f5f5f5;strokeColor=#666666;fontColor=#333333;" parent="1" vertex="1">
          <mxGeometry x="280" y="440" width="160" height="20" as="geometry" />
        </mxCell>
        <mxCell id="XwEQovFYGwXoTj2P0Iut-71" value="&lt;font style=&quot;font-size: 10px&quot;&gt;Seperated Metal Rich Slag x1000L&lt;/font&gt;" style="rounded=0;whiteSpace=wrap;html=1;fillColor=#d5e8d4;strokeColor=#82b366;" parent="1" vertex="1">
          <mxGeometry x="280" y="460" width="160" height="20" as="geometry" />
        </mxCell>
        <mxCell id="XwEQovFYGwXoTj2P0Iut-72" value="&lt;font style=&quot;font-size: 12px&quot;&gt;Sodium Hydroxide Dust x6&lt;/font&gt;" style="rounded=0;whiteSpace=wrap;html=1;fillColor=#d5e8d4;strokeColor=#82b366;" parent="1" vertex="1">
          <mxGeometry x="280" y="480" width="160" height="20" as="geometry" />
        </mxCell>
        <mxCell id="XwEQovFYGwXoTj2P0Iut-73" value="1700 eu/t&lt;span style=&quot;color: rgba(0 , 0 , 0 , 0) ; font-family: monospace ; font-size: 0px&quot;&gt;%3CmxGraphModel%3E%3Croot%3E%3CmxCell%20id%3D%220%22%2F%3E%3CmxCell%20id%3D%221%22%20parent%3D%220%22%2F%3E%3CmxCell%20id%3D%222%22%20value%3D%22Mixer%22%20style%3D%22rounded%3D0%3BwhiteSpace%3Dwrap%3Bhtml%3D1%3BfillColor%3D%23f5f5f5%3BstrokeColor%3D%23666666%3BfontColor%3D%23333333%3B%22%20vertex%3D%221%22%20parent%3D%221%22%3E%3CmxGeometry%20x%3D%2280%22%20y%3D%2240%22%20width%3D%22120%22%20height%3D%2240%22%20as%3D%22geometry%22%2F%3E%3C%2FmxCell%3E%3C%2Froot%3E%3C%2FmxGraphModel%3E&lt;/span&gt;" style="rounded=0;whiteSpace=wrap;html=1;fillColor=#dae8fc;strokeColor=#6c8ebf;" parent="1" vertex="1">
          <mxGeometry x="280" y="500" width="160" height="20" as="geometry" />
        </mxCell>
        <mxCell id="XwEQovFYGwXoTj2P0Iut-74" value="180 t&lt;span style=&quot;color: rgba(0 , 0 , 0 , 0) ; font-family: monospace ; font-size: 0px&quot;&gt;%3CmxGraphModel%3E%3Croot%3E%3CmxCell%20id%3D%220%22%2F%3E%3CmxCell%20id%3D%221%22%20parent%3D%220%22%2F%3E%3CmxCell%20id%3D%222%22%20value%3D%22Mixer%22%20style%3D%22rounded%3D0%3BwhiteSpace%3Dwrap%3Bhtml%3D1%3BfillColor%3D%23f5f5f5%3BstrokeColor%3D%23666666%3BfontColor%3D%23333333%3B%22%20vertex%3D%221%22%20parent%3D%221%22%3E%3CmxGeometry%20x%3D%2280%22%20y%3D%2240%22%20width%3D%22120%22%20height%3D%2240%22%20as%3D%22geometry%22%2F%3E%3C%2FmxCell%3E%3C%2Froot%3E%3C%2FmxGraphModel%3E&lt;/span&gt;" style="rounded=0;whiteSpace=wrap;html=1;fillColor=#dae8fc;strokeColor=#6c8ebf;" parent="1" vertex="1">
          <mxGeometry x="280" y="520" width="160" height="20" as="geometry" />
        </mxCell>
        <mxCell id="XwEQovFYGwXoTj2P0Iut-75" value="&lt;font style=&quot;font-size: 11px&quot;&gt;Sodium Diphosphate Dust x24&lt;/font&gt;" style="rounded=0;whiteSpace=wrap;html=1;fillColor=#f8cecc;strokeColor=#b85450;" parent="1" vertex="1">
          <mxGeometry x="280" y="560" width="160" height="20" as="geometry" />
        </mxCell>
        <mxCell id="XwEQovFYGwXoTj2P0Iut-76" value="&lt;font style=&quot;font-size: 12px&quot;&gt;Iron Pure Mixture x1000L&lt;/font&gt;" style="rounded=0;whiteSpace=wrap;html=1;fillColor=#f8cecc;strokeColor=#b85450;" parent="1" vertex="1">
          <mxGeometry x="280" y="540" width="160" height="20" as="geometry" />
        </mxCell>
        <mxCell id="XwEQovFYGwXoTj2P0Iut-77" value="&lt;font style=&quot;font-size: 12px&quot;&gt;Water x7000L&lt;/font&gt;" style="rounded=0;whiteSpace=wrap;html=1;fillColor=#f8cecc;strokeColor=#b85450;" parent="1" vertex="1">
          <mxGeometry x="280" y="580" width="160" height="20" as="geometry" />
        </mxCell>
        <mxCell id="XwEQovFYGwXoTj2P0Iut-78" value="" style="endArrow=classic;html=1;exitX=1;exitY=0.5;exitDx=0;exitDy=0;rounded=0;entryX=0;entryY=0.5;entryDx=0;entryDy=0;" parent="1" source="XwEQovFYGwXoTj2P0Iut-67" target="XwEQovFYGwXoTj2P0Iut-71" edge="1">
          <mxGeometry width="50" height="50" relative="1" as="geometry">
            <mxPoint x="360" y="550" as="sourcePoint" />
            <mxPoint x="410" y="500" as="targetPoint" />
            <Array as="points">
              <mxPoint x="460" y="390" />
              <mxPoint x="460" y="420" />
              <mxPoint x="260" y="420" />
              <mxPoint x="260" y="470" />
            </Array>
          </mxGeometry>
        </mxCell>
        <mxCell id="XwEQovFYGwXoTj2P0Iut-79" value="" style="endArrow=classic;html=1;exitX=1;exitY=0.5;exitDx=0;exitDy=0;rounded=0;entryX=0;entryY=0.5;entryDx=0;entryDy=0;" parent="1" source="XwEQovFYGwXoTj2P0Iut-76" target="XwEQovFYGwXoTj2P0Iut-41" edge="1">
          <mxGeometry width="50" height="50" relative="1" as="geometry">
            <mxPoint x="400" y="700" as="sourcePoint" />
            <mxPoint x="450" y="650" as="targetPoint" />
            <Array as="points">
              <mxPoint x="480" y="550" />
              <mxPoint x="480" y="820" />
              <mxPoint x="260" y="820" />
              <mxPoint x="260" y="870" />
            </Array>
          </mxGeometry>
        </mxCell>
        <mxCell id="XwEQovFYGwXoTj2P0Iut-80" value="&lt;font style=&quot;font-size: 11px&quot;&gt;Sodium Diphosphate Dust x8&lt;/font&gt;" style="rounded=0;whiteSpace=wrap;html=1;fillColor=#d5e8d4;strokeColor=#82b366;" parent="1" vertex="1">
          <mxGeometry x="280" y="660" width="160" height="20" as="geometry" />
        </mxCell>
        <mxCell id="XwEQovFYGwXoTj2P0Iut-81" value="&lt;font style=&quot;font-size: 12px&quot;&gt;Oxygen x4000L&lt;/font&gt;" style="rounded=0;whiteSpace=wrap;html=1;fillColor=#f8cecc;strokeColor=#b85450;" parent="1" vertex="1">
          <mxGeometry x="280" y="760" width="160" height="20" as="geometry" />
        </mxCell>
        <mxCell id="XwEQovFYGwXoTj2P0Iut-82" value="&lt;font style=&quot;font-size: 12px&quot;&gt;Hydrogen x1000L&lt;/font&gt;" style="rounded=0;whiteSpace=wrap;html=1;fillColor=#f8cecc;strokeColor=#b85450;" parent="1" vertex="1">
          <mxGeometry x="280" y="780" width="160" height="20" as="geometry" />
        </mxCell>
        <mxCell id="XwEQovFYGwXoTj2P0Iut-83" value="" style="endArrow=classic;html=1;exitX=1;exitY=0.5;exitDx=0;exitDy=0;rounded=0;entryX=0;entryY=0.5;entryDx=0;entryDy=0;" parent="1" source="XwEQovFYGwXoTj2P0Iut-75" target="XwEQovFYGwXoTj2P0Iut-80" edge="1">
          <mxGeometry width="50" height="50" relative="1" as="geometry">
            <mxPoint x="380" y="700" as="sourcePoint" />
            <mxPoint x="430" y="650" as="targetPoint" />
            <Array as="points">
              <mxPoint x="460" y="570" />
              <mxPoint x="460" y="620" />
              <mxPoint x="260" y="620" />
              <mxPoint x="260" y="670" />
            </Array>
          </mxGeometry>
        </mxCell>
        <mxCell id="XwEQovFYGwXoTj2P0Iut-84" value="Mixer" style="rounded=0;whiteSpace=wrap;html=1;fillColor=#f5f5f5;strokeColor=#666666;fontColor=#333333;" parent="1" vertex="1">
          <mxGeometry x="520" y="280" width="160" height="20" as="geometry" />
        </mxCell>
        <mxCell id="XwEQovFYGwXoTj2P0Iut-85" value="&lt;font style=&quot;font-size: 12px&quot;&gt;Rariest Earth Metal Dust x8&lt;/font&gt;" style="rounded=0;whiteSpace=wrap;html=1;fillColor=#d5e8d4;strokeColor=#82b366;" parent="1" vertex="1">
          <mxGeometry x="520" y="300" width="160" height="20" as="geometry" />
        </mxCell>
        <mxCell id="XwEQovFYGwXoTj2P0Iut-86" value="&lt;font style=&quot;font-size: 12px&quot;&gt;Nitric Acid x8000L&lt;/font&gt;" style="rounded=0;whiteSpace=wrap;html=1;fillColor=#d5e8d4;strokeColor=#82b366;" parent="1" vertex="1">
          <mxGeometry x="520" y="320" width="160" height="20" as="geometry" />
        </mxCell>
        <mxCell id="XwEQovFYGwXoTj2P0Iut-87" value="600 eu/t&lt;span style=&quot;color: rgba(0 , 0 , 0 , 0) ; font-family: monospace ; font-size: 0px&quot;&gt;%3CmxGraphModel%3E%3Croot%3E%3CmxCell%20id%3D%220%22%2F%3E%3CmxCell%20id%3D%221%22%20parent%3D%220%22%2F%3E%3CmxCell%20id%3D%222%22%20value%3D%22Mixer%22%20style%3D%22rounded%3D0%3BwhiteSpace%3Dwrap%3Bhtml%3D1%3BfillColor%3D%23f5f5f5%3BstrokeColor%3D%23666666%3BfontColor%3D%23333333%3B%22%20vertex%3D%221%22%20parent%3D%221%22%3E%3CmxGeometry%20x%3D%2280%22%20y%3D%2240%22%20width%3D%22120%22%20height%3D%2240%22%20as%3D%22geometry%22%2F%3E%3C%2FmxCell%3E%3C%2Froot%3E%3C%2FmxGraphModel%3E&lt;/span&gt;" style="rounded=0;whiteSpace=wrap;html=1;fillColor=#dae8fc;strokeColor=#6c8ebf;" parent="1" vertex="1">
          <mxGeometry x="520" y="340" width="160" height="20" as="geometry" />
        </mxCell>
        <mxCell id="XwEQovFYGwXoTj2P0Iut-88" value="200 t&lt;span style=&quot;color: rgba(0 , 0 , 0 , 0) ; font-family: monospace ; font-size: 0px&quot;&gt;%3CmxGraphModel%3E%3Croot%3E%3CmxCell%20id%3D%220%22%2F%3E%3CmxCell%20id%3D%221%22%20parent%3D%220%22%2F%3E%3CmxCell%20id%3D%222%22%20value%3D%22Mixer%22%20style%3D%22rounded%3D0%3BwhiteSpace%3Dwrap%3Bhtml%3D1%3BfillColor%3D%23f5f5f5%3BstrokeColor%3D%23666666%3BfontColor%3D%23333333%3B%22%20vertex%3D%221%22%20parent%3D%221%22%3E%3CmxGeometry%20x%3D%2280%22%20y%3D%2240%22%20width%3D%22120%22%20height%3D%2240%22%20as%3D%22geometry%22%2F%3E%3C%2FmxCell%3E%3C%2Froot%3E%3C%2FmxGraphModel%3E&lt;/span&gt;" style="rounded=0;whiteSpace=wrap;html=1;fillColor=#dae8fc;strokeColor=#6c8ebf;" parent="1" vertex="1">
          <mxGeometry x="520" y="360" width="160" height="20" as="geometry" />
        </mxCell>
        <mxCell id="XwEQovFYGwXoTj2P0Iut-89" value="&lt;font style=&quot;font-size: 9px&quot;&gt;Rich Metal Nitrate Sollution x16000L&lt;/font&gt;" style="rounded=0;whiteSpace=wrap;html=1;fillColor=#f8cecc;strokeColor=#b85450;" parent="1" vertex="1">
          <mxGeometry x="520" y="380" width="160" height="20" as="geometry" />
        </mxCell>
        <mxCell id="XwEQovFYGwXoTj2P0Iut-90" value="" style="endArrow=classic;html=1;entryX=0;entryY=0.5;entryDx=0;entryDy=0;rounded=0;exitX=1;exitY=0.5;exitDx=0;exitDy=0;" parent="1" source="XwEQovFYGwXoTj2P0Iut-68" target="XwEQovFYGwXoTj2P0Iut-85" edge="1">
          <mxGeometry width="50" height="50" relative="1" as="geometry">
            <mxPoint x="440" y="390" as="sourcePoint" />
            <mxPoint x="660" y="370" as="targetPoint" />
            <Array as="points">
              <mxPoint x="480" y="370" />
              <mxPoint x="480" y="310" />
            </Array>
          </mxGeometry>
        </mxCell>
        <mxCell id="XwEQovFYGwXoTj2P0Iut-92" value="Centrifuge" style="rounded=0;whiteSpace=wrap;html=1;fillColor=#f5f5f5;strokeColor=#666666;fontColor=#333333;" parent="1" vertex="1">
          <mxGeometry x="520" y="440" width="160" height="20" as="geometry" />
        </mxCell>
        <mxCell id="XwEQovFYGwXoTj2P0Iut-93" value="&lt;font style=&quot;font-size: 9px&quot;&gt;Rich Metal Nitrate Sollution x32000L&lt;/font&gt;" style="rounded=0;whiteSpace=wrap;html=1;fillColor=#d5e8d4;strokeColor=#82b366;" parent="1" vertex="1">
          <mxGeometry x="520" y="460" width="160" height="20" as="geometry" />
        </mxCell>
        <mxCell id="XwEQovFYGwXoTj2P0Iut-94" value="7680 eu/t&lt;span style=&quot;color: rgba(0 , 0 , 0 , 0) ; font-family: monospace ; font-size: 0px&quot;&gt;%3CmxGraphModel%3E%3Croot%3E%3CmxCell%20id%3D%220%22%2F%3E%3CmxCell%20id%3D%221%22%20parent%3D%220%22%2F%3E%3CmxCell%20id%3D%222%22%20value%3D%22Mixer%22%20style%3D%22rounded%3D0%3BwhiteSpace%3Dwrap%3Bhtml%3D1%3BfillColor%3D%23f5f5f5%3BstrokeColor%3D%23666666%3BfontColor%3D%23333333%3B%22%20vertex%3D%221%22%20parent%3D%221%22%3E%3CmxGeometry%20x%3D%2280%22%20y%3D%2240%22%20width%3D%22120%22%20height%3D%2240%22%20as%3D%22geometry%22%2F%3E%3C%2FmxCell%3E%3C%2Froot%3E%3C%2FmxGraphModel%3E&lt;/span&gt;" style="rounded=0;whiteSpace=wrap;html=1;fillColor=#dae8fc;strokeColor=#6c8ebf;" parent="1" vertex="1">
          <mxGeometry x="520" y="480" width="160" height="20" as="geometry" />
        </mxCell>
        <mxCell id="XwEQovFYGwXoTj2P0Iut-95" value="60 t&lt;span style=&quot;color: rgba(0 , 0 , 0 , 0) ; font-family: monospace ; font-size: 0px&quot;&gt;%3CmxGraphModel%3E%3Croot%3E%3CmxCell%20id%3D%220%22%2F%3E%3CmxCell%20id%3D%221%22%20parent%3D%220%22%2F%3E%3CmxCell%20id%3D%222%22%20value%3D%22Mixer%22%20style%3D%22rounded%3D0%3BwhiteSpace%3Dwrap%3Bhtml%3D1%3BfillColor%3D%23f5f5f5%3BstrokeColor%3D%23666666%3BfontColor%3D%23333333%3B%22%20vertex%3D%221%22%20parent%3D%221%22%3E%3CmxGeometry%20x%3D%2280%22%20y%3D%2240%22%20width%3D%22120%22%20height%3D%2240%22%20as%3D%22geometry%22%2F%3E%3C%2FmxCell%3E%3C%2Froot%3E%3C%2FmxGraphModel%3E&lt;/span&gt;" style="rounded=0;whiteSpace=wrap;html=1;fillColor=#dae8fc;strokeColor=#6c8ebf;" parent="1" vertex="1">
          <mxGeometry x="520" y="500" width="160" height="20" as="geometry" />
        </mxCell>
        <mxCell id="XwEQovFYGwXoTj2P0Iut-96" value="" style="endArrow=classic;html=1;exitX=1;exitY=0.5;exitDx=0;exitDy=0;entryX=0;entryY=0.5;entryDx=0;entryDy=0;rounded=0;" parent="1" source="XwEQovFYGwXoTj2P0Iut-89" target="XwEQovFYGwXoTj2P0Iut-93" edge="1">
          <mxGeometry width="50" height="50" relative="1" as="geometry">
            <mxPoint x="590" y="500" as="sourcePoint" />
            <mxPoint x="640" y="450" as="targetPoint" />
            <Array as="points">
              <mxPoint x="700" y="390" />
              <mxPoint x="700" y="420" />
              <mxPoint x="500" y="420" />
              <mxPoint x="500" y="470" />
            </Array>
          </mxGeometry>
        </mxCell>
        <mxCell id="XwEQovFYGwXoTj2P0Iut-97" value="&lt;font style=&quot;font-size: 12px&quot;&gt;Strontium Nitrate Dust x18&lt;/font&gt;" style="rounded=0;whiteSpace=wrap;html=1;fillColor=#f8cecc;strokeColor=#b85450;" parent="1" vertex="1">
          <mxGeometry x="520" y="520" width="160" height="20" as="geometry" />
        </mxCell>
        <mxCell id="XwEQovFYGwXoTj2P0Iut-98" value="&lt;font style=&quot;font-size: 12px&quot;&gt;Samarium Nitrate&amp;nbsp;Dust x26&lt;/font&gt;" style="rounded=0;whiteSpace=wrap;html=1;fillColor=#f8cecc;strokeColor=#b85450;" parent="1" vertex="1">
          <mxGeometry x="520" y="540" width="160" height="20" as="geometry" />
        </mxCell>
        <mxCell id="XwEQovFYGwXoTj2P0Iut-99" value="&lt;font style=&quot;font-size: 12px&quot;&gt;Gadolinium Nitrate&amp;nbsp;Dust x26&lt;/font&gt;" style="rounded=0;whiteSpace=wrap;html=1;fillColor=#f8cecc;strokeColor=#b85450;" parent="1" vertex="1">
          <mxGeometry x="520" y="560" width="160" height="20" as="geometry" />
        </mxCell>
        <mxCell id="XwEQovFYGwXoTj2P0Iut-100" value="&lt;font style=&quot;font-size: 12px&quot;&gt;Thorium Dust x1&lt;/font&gt;" style="rounded=0;whiteSpace=wrap;html=1;fillColor=#f8cecc;strokeColor=#b85450;" parent="1" vertex="1">
          <mxGeometry x="520" y="580" width="160" height="20" as="geometry" />
        </mxCell>
        <mxCell id="XwEQovFYGwXoTj2P0Iut-101" value="&lt;font style=&quot;font-size: 12px&quot;&gt;Yttrium Dust x1&lt;/font&gt;" style="rounded=0;whiteSpace=wrap;html=1;fillColor=#f8cecc;strokeColor=#b85450;" parent="1" vertex="1">
          <mxGeometry x="520" y="600" width="160" height="20" as="geometry" />
        </mxCell>
        <mxCell id="XwEQovFYGwXoTj2P0Iut-102" value="&lt;font style=&quot;font-size: 12px&quot;&gt;Neodymium Dust x1&lt;/font&gt;" style="rounded=0;whiteSpace=wrap;html=1;fillColor=#f8cecc;strokeColor=#b85450;" parent="1" vertex="1">
          <mxGeometry x="520" y="620" width="160" height="20" as="geometry" />
        </mxCell>
        <mxCell id="XwEQovFYGwXoTj2P0Iut-106" value="Electrolyzer" style="rounded=0;whiteSpace=wrap;html=1;fillColor=#f5f5f5;strokeColor=#666666;fontColor=#333333;" parent="1" vertex="1">
          <mxGeometry x="520" y="1040" width="160" height="20" as="geometry" />
        </mxCell>
        <mxCell id="XwEQovFYGwXoTj2P0Iut-107" value="&lt;font style=&quot;font-size: 12px&quot;&gt;Strontium Nitrate Dust x9&lt;/font&gt;" style="rounded=0;whiteSpace=wrap;html=1;fillColor=#d5e8d4;strokeColor=#82b366;" parent="1" vertex="1">
          <mxGeometry x="520" y="1060" width="160" height="20" as="geometry" />
        </mxCell>
        <mxCell id="XwEQovFYGwXoTj2P0Iut-108" value="500 eu/t&lt;span style=&quot;color: rgba(0 , 0 , 0 , 0) ; font-family: monospace ; font-size: 0px&quot;&gt;%3CmxGraphModel%3E%3Croot%3E%3CmxCell%20id%3D%220%22%2F%3E%3CmxCell%20id%3D%221%22%20parent%3D%220%22%2F%3E%3CmxCell%20id%3D%222%22%20value%3D%22Mixer%22%20style%3D%22rounded%3D0%3BwhiteSpace%3Dwrap%3Bhtml%3D1%3BfillColor%3D%23f5f5f5%3BstrokeColor%3D%23666666%3BfontColor%3D%23333333%3B%22%20vertex%3D%221%22%20parent%3D%221%22%3E%3CmxGeometry%20x%3D%2280%22%20y%3D%2240%22%20width%3D%22120%22%20height%3D%2240%22%20as%3D%22geometry%22%2F%3E%3C%2FmxCell%3E%3C%2Froot%3E%3C%2FmxGraphModel%3E&lt;/span&gt;" style="rounded=0;whiteSpace=wrap;html=1;fillColor=#dae8fc;strokeColor=#6c8ebf;" parent="1" vertex="1">
          <mxGeometry x="520" y="1080" width="160" height="20" as="geometry" />
        </mxCell>
        <mxCell id="XwEQovFYGwXoTj2P0Iut-109" value="200 t&lt;span style=&quot;color: rgba(0 , 0 , 0 , 0) ; font-family: monospace ; font-size: 0px&quot;&gt;%3CmxGraphModel%3E%3Croot%3E%3CmxCell%20id%3D%220%22%2F%3E%3CmxCell%20id%3D%221%22%20parent%3D%220%22%2F%3E%3CmxCell%20id%3D%222%22%20value%3D%22Mixer%22%20style%3D%22rounded%3D0%3BwhiteSpace%3Dwrap%3Bhtml%3D1%3BfillColor%3D%23f5f5f5%3BstrokeColor%3D%23666666%3BfontColor%3D%23333333%3B%22%20vertex%3D%221%22%20parent%3D%221%22%3E%3CmxGeometry%20x%3D%2280%22%20y%3D%2240%22%20width%3D%22120%22%20height%3D%2240%22%20as%3D%22geometry%22%2F%3E%3C%2FmxCell%3E%3C%2Froot%3E%3C%2FmxGraphModel%3E&lt;/span&gt;" style="rounded=0;whiteSpace=wrap;html=1;fillColor=#dae8fc;strokeColor=#6c8ebf;" parent="1" vertex="1">
          <mxGeometry x="520" y="1100" width="160" height="20" as="geometry" />
        </mxCell>
        <mxCell id="XwEQovFYGwXoTj2P0Iut-110" value="&lt;font style=&quot;font-size: 12px&quot;&gt;Strontium Dust x1&lt;/font&gt;" style="rounded=0;whiteSpace=wrap;html=1;fillColor=#f8cecc;strokeColor=#b85450;" parent="1" vertex="1">
          <mxGeometry x="520" y="1120" width="160" height="20" as="geometry" />
        </mxCell>
        <mxCell id="XwEQovFYGwXoTj2P0Iut-111" value="&lt;font style=&quot;font-size: 12px&quot;&gt;Nitrogen x2000L&lt;/font&gt;" style="rounded=0;whiteSpace=wrap;html=1;fillColor=#f8cecc;strokeColor=#b85450;" parent="1" vertex="1">
          <mxGeometry x="520" y="1140" width="160" height="20" as="geometry" />
        </mxCell>
        <mxCell id="XwEQovFYGwXoTj2P0Iut-112" value="&lt;font style=&quot;font-size: 12px&quot;&gt;Oxygen x6000L&lt;/font&gt;" style="rounded=0;whiteSpace=wrap;html=1;fillColor=#f8cecc;strokeColor=#b85450;" parent="1" vertex="1">
          <mxGeometry x="520" y="1160" width="160" height="20" as="geometry" />
        </mxCell>
        <mxCell id="XwEQovFYGwXoTj2P0Iut-113" value="Electrolyzer" style="rounded=0;whiteSpace=wrap;html=1;fillColor=#f5f5f5;strokeColor=#666666;fontColor=#333333;" parent="1" vertex="1">
          <mxGeometry x="520" y="860" width="160" height="20" as="geometry" />
        </mxCell>
        <mxCell id="XwEQovFYGwXoTj2P0Iut-114" value="&lt;font style=&quot;font-size: 12px&quot;&gt;Samarium&amp;nbsp;Nitrate Dust x13&lt;/font&gt;" style="rounded=0;whiteSpace=wrap;html=1;fillColor=#d5e8d4;strokeColor=#82b366;" parent="1" vertex="1">
          <mxGeometry x="520" y="880" width="160" height="20" as="geometry" />
        </mxCell>
        <mxCell id="XwEQovFYGwXoTj2P0Iut-115" value="500 eu/t&lt;span style=&quot;color: rgba(0 , 0 , 0 , 0) ; font-family: monospace ; font-size: 0px&quot;&gt;%3CmxGraphModel%3E%3Croot%3E%3CmxCell%20id%3D%220%22%2F%3E%3CmxCell%20id%3D%221%22%20parent%3D%220%22%2F%3E%3CmxCell%20id%3D%222%22%20value%3D%22Mixer%22%20style%3D%22rounded%3D0%3BwhiteSpace%3Dwrap%3Bhtml%3D1%3BfillColor%3D%23f5f5f5%3BstrokeColor%3D%23666666%3BfontColor%3D%23333333%3B%22%20vertex%3D%221%22%20parent%3D%221%22%3E%3CmxGeometry%20x%3D%2280%22%20y%3D%2240%22%20width%3D%22120%22%20height%3D%2240%22%20as%3D%22geometry%22%2F%3E%3C%2FmxCell%3E%3C%2Froot%3E%3C%2FmxGraphModel%3E&lt;/span&gt;" style="rounded=0;whiteSpace=wrap;html=1;fillColor=#dae8fc;strokeColor=#6c8ebf;" parent="1" vertex="1">
          <mxGeometry x="520" y="900" width="160" height="20" as="geometry" />
        </mxCell>
        <mxCell id="XwEQovFYGwXoTj2P0Iut-116" value="200 t&lt;span style=&quot;color: rgba(0 , 0 , 0 , 0) ; font-family: monospace ; font-size: 0px&quot;&gt;%3CmxGraphModel%3E%3Croot%3E%3CmxCell%20id%3D%220%22%2F%3E%3CmxCell%20id%3D%221%22%20parent%3D%220%22%2F%3E%3CmxCell%20id%3D%222%22%20value%3D%22Mixer%22%20style%3D%22rounded%3D0%3BwhiteSpace%3Dwrap%3Bhtml%3D1%3BfillColor%3D%23f5f5f5%3BstrokeColor%3D%23666666%3BfontColor%3D%23333333%3B%22%20vertex%3D%221%22%20parent%3D%221%22%3E%3CmxGeometry%20x%3D%2280%22%20y%3D%2240%22%20width%3D%22120%22%20height%3D%2240%22%20as%3D%22geometry%22%2F%3E%3C%2FmxCell%3E%3C%2Froot%3E%3C%2FmxGraphModel%3E&lt;/span&gt;" style="rounded=0;whiteSpace=wrap;html=1;fillColor=#dae8fc;strokeColor=#6c8ebf;" parent="1" vertex="1">
          <mxGeometry x="520" y="920" width="160" height="20" as="geometry" />
        </mxCell>
        <mxCell id="XwEQovFYGwXoTj2P0Iut-117" value="&lt;font style=&quot;font-size: 12px&quot;&gt;Samarium&amp;nbsp;Dust x1&lt;/font&gt;" style="rounded=0;whiteSpace=wrap;html=1;fillColor=#f8cecc;strokeColor=#b85450;" parent="1" vertex="1">
          <mxGeometry x="520" y="940" width="160" height="20" as="geometry" />
        </mxCell>
        <mxCell id="XwEQovFYGwXoTj2P0Iut-118" value="&lt;font style=&quot;font-size: 12px&quot;&gt;Nitrogen x3000L&lt;/font&gt;" style="rounded=0;whiteSpace=wrap;html=1;fillColor=#f8cecc;strokeColor=#b85450;" parent="1" vertex="1">
          <mxGeometry x="520" y="960" width="160" height="20" as="geometry" />
        </mxCell>
        <mxCell id="XwEQovFYGwXoTj2P0Iut-119" value="&lt;font style=&quot;font-size: 12px&quot;&gt;Oxygen x9000L&lt;/font&gt;" style="rounded=0;whiteSpace=wrap;html=1;fillColor=#f8cecc;strokeColor=#b85450;" parent="1" vertex="1">
          <mxGeometry x="520" y="980" width="160" height="20" as="geometry" />
        </mxCell>
        <mxCell id="XwEQovFYGwXoTj2P0Iut-120" value="Electrolyzer" style="rounded=0;whiteSpace=wrap;html=1;fillColor=#f5f5f5;strokeColor=#666666;fontColor=#333333;" parent="1" vertex="1">
          <mxGeometry x="520" y="680" width="160" height="20" as="geometry" />
        </mxCell>
        <mxCell id="XwEQovFYGwXoTj2P0Iut-121" value="&lt;font style=&quot;font-size: 12px&quot;&gt;Gadolinium&amp;nbsp;Nitrate Dust x13&lt;/font&gt;" style="rounded=0;whiteSpace=wrap;html=1;fillColor=#d5e8d4;strokeColor=#82b366;" parent="1" vertex="1">
          <mxGeometry x="520" y="700" width="160" height="20" as="geometry" />
        </mxCell>
        <mxCell id="XwEQovFYGwXoTj2P0Iut-122" value="500 eu/t&lt;span style=&quot;color: rgba(0 , 0 , 0 , 0) ; font-family: monospace ; font-size: 0px&quot;&gt;%3CmxGraphModel%3E%3Croot%3E%3CmxCell%20id%3D%220%22%2F%3E%3CmxCell%20id%3D%221%22%20parent%3D%220%22%2F%3E%3CmxCell%20id%3D%222%22%20value%3D%22Mixer%22%20style%3D%22rounded%3D0%3BwhiteSpace%3Dwrap%3Bhtml%3D1%3BfillColor%3D%23f5f5f5%3BstrokeColor%3D%23666666%3BfontColor%3D%23333333%3B%22%20vertex%3D%221%22%20parent%3D%221%22%3E%3CmxGeometry%20x%3D%2280%22%20y%3D%2240%22%20width%3D%22120%22%20height%3D%2240%22%20as%3D%22geometry%22%2F%3E%3C%2FmxCell%3E%3C%2Froot%3E%3C%2FmxGraphModel%3E&lt;/span&gt;" style="rounded=0;whiteSpace=wrap;html=1;fillColor=#dae8fc;strokeColor=#6c8ebf;" parent="1" vertex="1">
          <mxGeometry x="520" y="720" width="160" height="20" as="geometry" />
        </mxCell>
        <mxCell id="XwEQovFYGwXoTj2P0Iut-123" value="200 t&lt;span style=&quot;color: rgba(0 , 0 , 0 , 0) ; font-family: monospace ; font-size: 0px&quot;&gt;%3CmxGraphModel%3E%3Croot%3E%3CmxCell%20id%3D%220%22%2F%3E%3CmxCell%20id%3D%221%22%20parent%3D%220%22%2F%3E%3CmxCell%20id%3D%222%22%20value%3D%22Mixer%22%20style%3D%22rounded%3D0%3BwhiteSpace%3Dwrap%3Bhtml%3D1%3BfillColor%3D%23f5f5f5%3BstrokeColor%3D%23666666%3BfontColor%3D%23333333%3B%22%20vertex%3D%221%22%20parent%3D%221%22%3E%3CmxGeometry%20x%3D%2280%22%20y%3D%2240%22%20width%3D%22120%22%20height%3D%2240%22%20as%3D%22geometry%22%2F%3E%3C%2FmxCell%3E%3C%2Froot%3E%3C%2FmxGraphModel%3E&lt;/span&gt;" style="rounded=0;whiteSpace=wrap;html=1;fillColor=#dae8fc;strokeColor=#6c8ebf;" parent="1" vertex="1">
          <mxGeometry x="520" y="740" width="160" height="20" as="geometry" />
        </mxCell>
        <mxCell id="XwEQovFYGwXoTj2P0Iut-124" value="&lt;font style=&quot;font-size: 12px&quot;&gt;Gadolinium&amp;nbsp;Dust x1&lt;/font&gt;" style="rounded=0;whiteSpace=wrap;html=1;fillColor=#f8cecc;strokeColor=#b85450;" parent="1" vertex="1">
          <mxGeometry x="520" y="760" width="160" height="20" as="geometry" />
        </mxCell>
        <mxCell id="XwEQovFYGwXoTj2P0Iut-125" value="&lt;font style=&quot;font-size: 12px&quot;&gt;Nitrogen x3000L&lt;/font&gt;" style="rounded=0;whiteSpace=wrap;html=1;fillColor=#f8cecc;strokeColor=#b85450;" parent="1" vertex="1">
          <mxGeometry x="520" y="780" width="160" height="20" as="geometry" />
        </mxCell>
        <mxCell id="XwEQovFYGwXoTj2P0Iut-126" value="&lt;font style=&quot;font-size: 12px&quot;&gt;Oxygen x9000L&lt;/font&gt;" style="rounded=0;whiteSpace=wrap;html=1;fillColor=#f8cecc;strokeColor=#b85450;" parent="1" vertex="1">
          <mxGeometry x="520" y="800" width="160" height="20" as="geometry" />
        </mxCell>
        <mxCell id="XwEQovFYGwXoTj2P0Iut-127" value="" style="endArrow=classic;html=1;entryX=0;entryY=0.5;entryDx=0;entryDy=0;exitX=1;exitY=0.5;exitDx=0;exitDy=0;rounded=0;" parent="1" source="XwEQovFYGwXoTj2P0Iut-99" target="XwEQovFYGwXoTj2P0Iut-121" edge="1">
          <mxGeometry width="50" height="50" relative="1" as="geometry">
            <mxPoint x="600" y="650" as="sourcePoint" />
            <mxPoint x="650" y="600" as="targetPoint" />
            <Array as="points">
              <mxPoint x="700" y="570" />
              <mxPoint x="700" y="660" />
              <mxPoint x="500" y="660" />
              <mxPoint x="500" y="710" />
            </Array>
          </mxGeometry>
        </mxCell>
        <mxCell id="XwEQovFYGwXoTj2P0Iut-128" value="" style="endArrow=classic;html=1;exitX=1;exitY=0.5;exitDx=0;exitDy=0;rounded=0;entryX=0;entryY=0.5;entryDx=0;entryDy=0;" parent="1" source="XwEQovFYGwXoTj2P0Iut-98" target="XwEQovFYGwXoTj2P0Iut-114" edge="1">
          <mxGeometry width="50" height="50" relative="1" as="geometry">
            <mxPoint x="560" y="750" as="sourcePoint" />
            <mxPoint x="610" y="700" as="targetPoint" />
            <Array as="points">
              <mxPoint x="710" y="550" />
              <mxPoint x="710" y="840" />
              <mxPoint x="500" y="840" />
              <mxPoint x="500" y="890" />
            </Array>
          </mxGeometry>
        </mxCell>
        <mxCell id="XwEQovFYGwXoTj2P0Iut-129" value="" style="endArrow=classic;html=1;entryX=0;entryY=0.5;entryDx=0;entryDy=0;rounded=0;" parent="1" target="XwEQovFYGwXoTj2P0Iut-107" edge="1">
          <mxGeometry width="50" height="50" relative="1" as="geometry">
            <mxPoint x="680" y="530" as="sourcePoint" />
            <mxPoint x="740" y="950" as="targetPoint" />
            <Array as="points">
              <mxPoint x="720" y="530" />
              <mxPoint x="720" y="1020" />
              <mxPoint x="500" y="1020" />
              <mxPoint x="500" y="1070" />
            </Array>
          </mxGeometry>
        </mxCell>
        <mxCell id="XwEQovFYGwXoTj2P0Iut-130" value="Chemical Reactor" style="rounded=0;whiteSpace=wrap;html=1;fillColor=#f5f5f5;strokeColor=#666666;fontColor=#333333;" parent="1" vertex="1">
          <mxGeometry x="760" y="280" width="160" height="20" as="geometry" />
        </mxCell>
        <mxCell id="XwEQovFYGwXoTj2P0Iut-131" value="&lt;font style=&quot;font-size: 12px&quot;&gt;Triniite Dust x3&lt;/font&gt;" style="rounded=0;whiteSpace=wrap;html=1;fillColor=#d5e8d4;strokeColor=#82b366;" parent="1" vertex="1">
          <mxGeometry x="760" y="320" width="160" height="20" as="geometry" />
        </mxCell>
        <mxCell id="XwEQovFYGwXoTj2P0Iut-132" value="&lt;font style=&quot;font-size: 12px&quot;&gt;Sodium Cyanide x1000L&lt;/font&gt;" style="rounded=0;whiteSpace=wrap;html=1;fillColor=#d5e8d4;strokeColor=#82b366;" parent="1" vertex="1">
          <mxGeometry x="760" y="300" width="160" height="20" as="geometry" />
        </mxCell>
        <mxCell id="XwEQovFYGwXoTj2P0Iut-133" value="7680 eu/t&lt;span style=&quot;color: rgba(0 , 0 , 0 , 0) ; font-family: monospace ; font-size: 0px&quot;&gt;%3CmxGraphModel%3E%3Croot%3E%3CmxCell%20id%3D%220%22%2F%3E%3CmxCell%20id%3D%221%22%20parent%3D%220%22%2F%3E%3CmxCell%20id%3D%222%22%20value%3D%22Mixer%22%20style%3D%22rounded%3D0%3BwhiteSpace%3Dwrap%3Bhtml%3D1%3BfillColor%3D%23f5f5f5%3BstrokeColor%3D%23666666%3BfontColor%3D%23333333%3B%22%20vertex%3D%221%22%20parent%3D%221%22%3E%3CmxGeometry%20x%3D%2280%22%20y%3D%2240%22%20width%3D%22120%22%20height%3D%2240%22%20as%3D%22geometry%22%2F%3E%3C%2FmxCell%3E%3C%2Froot%3E%3C%2FmxGraphModel%3E&lt;/span&gt;" style="rounded=0;whiteSpace=wrap;html=1;fillColor=#dae8fc;strokeColor=#6c8ebf;" parent="1" vertex="1">
          <mxGeometry x="760" y="340" width="160" height="20" as="geometry" />
        </mxCell>
        <mxCell id="XwEQovFYGwXoTj2P0Iut-134" value="100 t&lt;span style=&quot;color: rgba(0 , 0 , 0 , 0) ; font-family: monospace ; font-size: 0px&quot;&gt;%3CmxGraphModel%3E%3Croot%3E%3CmxCell%20id%3D%220%22%2F%3E%3CmxCell%20id%3D%221%22%20parent%3D%220%22%2F%3E%3CmxCell%20id%3D%222%22%20value%3D%22Mixer%22%20style%3D%22rounded%3D0%3BwhiteSpace%3Dwrap%3Bhtml%3D1%3BfillColor%3D%23f5f5f5%3BstrokeColor%3D%23666666%3BfontColor%3D%23333333%3B%22%20vertex%3D%221%22%20parent%3D%221%22%3E%3CmxGeometry%20x%3D%2280%22%20y%3D%2240%22%20width%3D%22120%22%20height%3D%2240%22%20as%3D%22geometry%22%2F%3E%3C%2FmxCell%3E%3C%2Froot%3E%3C%2FmxGraphModel%3E&lt;/span&gt;" style="rounded=0;whiteSpace=wrap;html=1;fillColor=#dae8fc;strokeColor=#6c8ebf;" parent="1" vertex="1">
          <mxGeometry x="760" y="360" width="160" height="20" as="geometry" />
        </mxCell>
        <mxCell id="XwEQovFYGwXoTj2P0Iut-135" value="&lt;font style=&quot;font-size: 12px&quot;&gt;Gold Depleted Triniite x3&lt;/font&gt;" style="rounded=0;whiteSpace=wrap;html=1;fillColor=#f8cecc;strokeColor=#b85450;" parent="1" vertex="1">
          <mxGeometry x="760" y="380" width="160" height="20" as="geometry" />
        </mxCell>
        <mxCell id="XwEQovFYGwXoTj2P0Iut-136" value="&lt;font style=&quot;font-size: 12px&quot;&gt;Gold Cyanide x1000L&lt;/font&gt;" style="rounded=0;whiteSpace=wrap;html=1;fillColor=#f8cecc;strokeColor=#b85450;" parent="1" vertex="1">
          <mxGeometry x="760" y="400" width="160" height="20" as="geometry" />
        </mxCell>
        <mxCell id="XwEQovFYGwXoTj2P0Iut-137" value="" style="endArrow=classic;html=1;exitX=1;exitY=0.5;exitDx=0;exitDy=0;entryX=0;entryY=0.5;entryDx=0;entryDy=0;rounded=0;endSize=10;startSize=10;strokeWidth=3;" parent="1" source="XwEQovFYGwXoTj2P0Iut-12" target="XwEQovFYGwXoTj2P0Iut-131" edge="1">
          <mxGeometry width="50" height="50" relative="1" as="geometry">
            <mxPoint x="770" y="320" as="sourcePoint" />
            <mxPoint x="820" y="270" as="targetPoint" />
            <Array as="points">
              <mxPoint x="480" y="190" />
              <mxPoint x="480" y="260" />
              <mxPoint x="710" y="260" />
              <mxPoint x="710" y="330" />
            </Array>
          </mxGeometry>
        </mxCell>
        <mxCell id="XwEQovFYGwXoTj2P0Iut-138" value="Chemical Reactor" style="rounded=0;whiteSpace=wrap;html=1;fillColor=#f5f5f5;strokeColor=#666666;fontColor=#333333;" parent="1" vertex="1">
          <mxGeometry x="520" y="80" width="160" height="20" as="geometry" />
        </mxCell>
        <mxCell id="XwEQovFYGwXoTj2P0Iut-139" value="&lt;font style=&quot;font-size: 12px&quot;&gt;Methane x1000L&lt;/font&gt;" style="rounded=0;whiteSpace=wrap;html=1;fillColor=#d5e8d4;strokeColor=#82b366;" parent="1" vertex="1">
          <mxGeometry x="520" y="100" width="160" height="20" as="geometry" />
        </mxCell>
        <mxCell id="XwEQovFYGwXoTj2P0Iut-140" value="&lt;font style=&quot;font-size: 12px&quot;&gt;Ammonia x1000L&lt;/font&gt;" style="rounded=0;whiteSpace=wrap;html=1;fillColor=#d5e8d4;strokeColor=#82b366;" parent="1" vertex="1">
          <mxGeometry x="520" y="120" width="160" height="20" as="geometry" />
        </mxCell>
        <mxCell id="XwEQovFYGwXoTj2P0Iut-141" value="&lt;font style=&quot;font-size: 12px&quot;&gt;Oxygen x3000L&lt;/font&gt;" style="rounded=0;whiteSpace=wrap;html=1;fillColor=#d5e8d4;strokeColor=#82b366;" parent="1" vertex="1">
          <mxGeometry x="520" y="140" width="160" height="20" as="geometry" />
        </mxCell>
        <mxCell id="XwEQovFYGwXoTj2P0Iut-142" value="7680 eu/t&lt;span style=&quot;color: rgba(0 , 0 , 0 , 0) ; font-family: monospace ; font-size: 0px&quot;&gt;%3CmxGraphModel%3E%3Croot%3E%3CmxCell%20id%3D%220%22%2F%3E%3CmxCell%20id%3D%221%22%20parent%3D%220%22%2F%3E%3CmxCell%20id%3D%222%22%20value%3D%22Mixer%22%20style%3D%22rounded%3D0%3BwhiteSpace%3Dwrap%3Bhtml%3D1%3BfillColor%3D%23f5f5f5%3BstrokeColor%3D%23666666%3BfontColor%3D%23333333%3B%22%20vertex%3D%221%22%20parent%3D%221%22%3E%3CmxGeometry%20x%3D%2280%22%20y%3D%2240%22%20width%3D%22120%22%20height%3D%2240%22%20as%3D%22geometry%22%2F%3E%3C%2FmxCell%3E%3C%2Froot%3E%3C%2FmxGraphModel%3E&lt;/span&gt;" style="rounded=0;whiteSpace=wrap;html=1;fillColor=#dae8fc;strokeColor=#6c8ebf;" parent="1" vertex="1">
          <mxGeometry x="520" y="160" width="160" height="20" as="geometry" />
        </mxCell>
        <mxCell id="XwEQovFYGwXoTj2P0Iut-143" value="50 t&lt;span style=&quot;color: rgba(0 , 0 , 0 , 0) ; font-family: monospace ; font-size: 0px&quot;&gt;%3CmxGraphModel%3E%3Croot%3E%3CmxCell%20id%3D%220%22%2F%3E%3CmxCell%20id%3D%221%22%20parent%3D%220%22%2F%3E%3CmxCell%20id%3D%222%22%20value%3D%22Mixer%22%20style%3D%22rounded%3D0%3BwhiteSpace%3Dwrap%3Bhtml%3D1%3BfillColor%3D%23f5f5f5%3BstrokeColor%3D%23666666%3BfontColor%3D%23333333%3B%22%20vertex%3D%221%22%20parent%3D%221%22%3E%3CmxGeometry%20x%3D%2280%22%20y%3D%2240%22%20width%3D%22120%22%20height%3D%2240%22%20as%3D%22geometry%22%2F%3E%3C%2FmxCell%3E%3C%2Froot%3E%3C%2FmxGraphModel%3E&lt;/span&gt;" style="rounded=0;whiteSpace=wrap;html=1;fillColor=#dae8fc;strokeColor=#6c8ebf;" parent="1" vertex="1">
          <mxGeometry x="520" y="180" width="160" height="20" as="geometry" />
        </mxCell>
        <mxCell id="XwEQovFYGwXoTj2P0Iut-144" value="&lt;font style=&quot;font-size: 12px&quot;&gt;Hydrogen Cyanide x1000L&lt;/font&gt;" style="rounded=0;whiteSpace=wrap;html=1;fillColor=#f8cecc;strokeColor=#b85450;" parent="1" vertex="1">
          <mxGeometry x="520" y="200" width="160" height="20" as="geometry" />
        </mxCell>
        <mxCell id="XwEQovFYGwXoTj2P0Iut-145" value="&lt;font style=&quot;font-size: 12px&quot;&gt;Water x3000L&lt;/font&gt;" style="rounded=0;whiteSpace=wrap;html=1;fillColor=#f8cecc;strokeColor=#b85450;" parent="1" vertex="1">
          <mxGeometry x="520" y="220" width="160" height="20" as="geometry" />
        </mxCell>
        <mxCell id="XwEQovFYGwXoTj2P0Iut-146" value="Chemical Reactor" style="rounded=0;whiteSpace=wrap;html=1;fillColor=#f5f5f5;strokeColor=#666666;fontColor=#333333;" parent="1" vertex="1">
          <mxGeometry x="760" y="80" width="160" height="20" as="geometry" />
        </mxCell>
        <mxCell id="XwEQovFYGwXoTj2P0Iut-147" value="&lt;font style=&quot;font-size: 12px&quot;&gt;Sodium Dust x2&lt;/font&gt;" style="rounded=0;whiteSpace=wrap;html=1;fillColor=#d5e8d4;strokeColor=#82b366;" parent="1" vertex="1">
          <mxGeometry x="760" y="100" width="160" height="20" as="geometry" />
        </mxCell>
        <mxCell id="XwEQovFYGwXoTj2P0Iut-148" value="&lt;font style=&quot;font-size: 12px&quot;&gt;Hydrogen Cyanide x2000L&lt;/font&gt;" style="rounded=0;whiteSpace=wrap;html=1;fillColor=#d5e8d4;strokeColor=#82b366;" parent="1" vertex="1">
          <mxGeometry x="760" y="120" width="160" height="20" as="geometry" />
        </mxCell>
        <mxCell id="XwEQovFYGwXoTj2P0Iut-149" value="&lt;font style=&quot;font-size: 12px&quot;&gt;Oxygen x1000L&lt;/font&gt;" style="rounded=0;whiteSpace=wrap;html=1;fillColor=#d5e8d4;strokeColor=#82b366;" parent="1" vertex="1">
          <mxGeometry x="760" y="140" width="160" height="20" as="geometry" />
        </mxCell>
        <mxCell id="XwEQovFYGwXoTj2P0Iut-152" value="30720 eu/t&lt;span style=&quot;color: rgba(0 , 0 , 0 , 0) ; font-family: monospace ; font-size: 0px&quot;&gt;%3CmxGraphModel%3E%3Croot%3E%3CmxCell%20id%3D%220%22%2F%3E%3CmxCell%20id%3D%221%22%20parent%3D%220%22%2F%3E%3CmxCell%20id%3D%222%22%20value%3D%22Mixer%22%20style%3D%22rounded%3D0%3BwhiteSpace%3Dwrap%3Bhtml%3D1%3BfillColor%3D%23f5f5f5%3BstrokeColor%3D%23666666%3BfontColor%3D%23333333%3B%22%20vertex%3D%221%22%20parent%3D%221%22%3E%3CmxGeometry%20x%3D%2280%22%20y%3D%2240%22%20width%3D%22120%22%20height%3D%2240%22%20as%3D%22geometry%22%2F%3E%3C%2FmxCell%3E%3C%2Froot%3E%3C%2FmxGraphModel%3E&lt;/span&gt;" style="rounded=0;whiteSpace=wrap;html=1;fillColor=#dae8fc;strokeColor=#6c8ebf;" parent="1" vertex="1">
          <mxGeometry x="760" y="160" width="160" height="20" as="geometry" />
        </mxCell>
        <mxCell id="XwEQovFYGwXoTj2P0Iut-153" value="20 t&lt;span style=&quot;color: rgba(0 , 0 , 0 , 0) ; font-family: monospace ; font-size: 0px&quot;&gt;%3CmxGraphModel%3E%3Croot%3E%3CmxCell%20id%3D%220%22%2F%3E%3CmxCell%20id%3D%221%22%20parent%3D%220%22%2F%3E%3CmxCell%20id%3D%222%22%20value%3D%22Mixer%22%20style%3D%22rounded%3D0%3BwhiteSpace%3Dwrap%3Bhtml%3D1%3BfillColor%3D%23f5f5f5%3BstrokeColor%3D%23666666%3BfontColor%3D%23333333%3B%22%20vertex%3D%221%22%20parent%3D%221%22%3E%3CmxGeometry%20x%3D%2280%22%20y%3D%2240%22%20width%3D%22120%22%20height%3D%2240%22%20as%3D%22geometry%22%2F%3E%3C%2FmxCell%3E%3C%2Froot%3E%3C%2FmxGraphModel%3E&lt;/span&gt;" style="rounded=0;whiteSpace=wrap;html=1;fillColor=#dae8fc;strokeColor=#6c8ebf;" parent="1" vertex="1">
          <mxGeometry x="760" y="180" width="160" height="20" as="geometry" />
        </mxCell>
        <mxCell id="XwEQovFYGwXoTj2P0Iut-155" value="&lt;font style=&quot;font-size: 12px&quot;&gt;Sodium Cyanide x2000L&lt;/font&gt;" style="rounded=0;whiteSpace=wrap;html=1;fillColor=#f8cecc;strokeColor=#b85450;" parent="1" vertex="1">
          <mxGeometry x="760" y="200" width="160" height="20" as="geometry" />
        </mxCell>
        <mxCell id="XwEQovFYGwXoTj2P0Iut-156" value="&lt;font style=&quot;font-size: 12px&quot;&gt;Water x1000L&lt;/font&gt;" style="rounded=0;whiteSpace=wrap;html=1;fillColor=#f8cecc;strokeColor=#b85450;" parent="1" vertex="1">
          <mxGeometry x="760" y="220" width="160" height="20" as="geometry" />
        </mxCell>
        <mxCell id="XwEQovFYGwXoTj2P0Iut-157" value="" style="endArrow=classic;html=1;exitX=1;exitY=0.5;exitDx=0;exitDy=0;entryX=0;entryY=0.5;entryDx=0;entryDy=0;rounded=0;" parent="1" source="XwEQovFYGwXoTj2P0Iut-144" target="XwEQovFYGwXoTj2P0Iut-148" edge="1">
          <mxGeometry width="50" height="50" relative="1" as="geometry">
            <mxPoint x="700" y="270" as="sourcePoint" />
            <mxPoint x="750" y="220" as="targetPoint" />
            <Array as="points">
              <mxPoint x="720" y="210" />
              <mxPoint x="720" y="130" />
            </Array>
          </mxGeometry>
        </mxCell>
        <mxCell id="XwEQovFYGwXoTj2P0Iut-158" value="" style="endArrow=classic;html=1;exitX=1;exitY=0.5;exitDx=0;exitDy=0;entryX=0;entryY=0.5;entryDx=0;entryDy=0;rounded=0;" parent="1" source="XwEQovFYGwXoTj2P0Iut-155" target="XwEQovFYGwXoTj2P0Iut-132" edge="1">
          <mxGeometry width="50" height="50" relative="1" as="geometry">
            <mxPoint x="780" y="310" as="sourcePoint" />
            <mxPoint x="830" y="260" as="targetPoint" />
            <Array as="points">
              <mxPoint x="940" y="210" />
              <mxPoint x="940" y="260" />
              <mxPoint x="730" y="260" />
              <mxPoint x="730" y="310" />
            </Array>
          </mxGeometry>
        </mxCell>
        <mxCell id="XwEQovFYGwXoTj2P0Iut-159" value="Chemical Reactor" style="rounded=0;whiteSpace=wrap;html=1;fillColor=#f5f5f5;strokeColor=#666666;fontColor=#333333;" parent="1" vertex="1">
          <mxGeometry x="760" y="460" width="160" height="20" as="geometry" />
        </mxCell>
        <mxCell id="XwEQovFYGwXoTj2P0Iut-160" value="&lt;font style=&quot;font-size: 12px&quot;&gt;Gold Cyanide x1000L&lt;/font&gt;" style="rounded=0;whiteSpace=wrap;html=1;fillColor=#d5e8d4;strokeColor=#82b366;" parent="1" vertex="1">
          <mxGeometry x="760" y="500" width="160" height="20" as="geometry" />
        </mxCell>
        <mxCell id="XwEQovFYGwXoTj2P0Iut-161" value="&lt;font style=&quot;font-size: 12px&quot;&gt;Sodium Dust x1&lt;/font&gt;" style="rounded=0;whiteSpace=wrap;html=1;fillColor=#d5e8d4;strokeColor=#82b366;" parent="1" vertex="1">
          <mxGeometry x="760" y="480" width="160" height="20" as="geometry" />
        </mxCell>
        <mxCell id="XwEQovFYGwXoTj2P0Iut-163" value="1920 eu/t&lt;span style=&quot;color: rgba(0 , 0 , 0 , 0) ; font-family: monospace ; font-size: 0px&quot;&gt;%3CmxGraphModel%3E%3Croot%3E%3CmxCell%20id%3D%220%22%2F%3E%3CmxCell%20id%3D%221%22%20parent%3D%220%22%2F%3E%3CmxCell%20id%3D%222%22%20value%3D%22Mixer%22%20style%3D%22rounded%3D0%3BwhiteSpace%3Dwrap%3Bhtml%3D1%3BfillColor%3D%23f5f5f5%3BstrokeColor%3D%23666666%3BfontColor%3D%23333333%3B%22%20vertex%3D%221%22%20parent%3D%221%22%3E%3CmxGeometry%20x%3D%2280%22%20y%3D%2240%22%20width%3D%22120%22%20height%3D%2240%22%20as%3D%22geometry%22%2F%3E%3C%2FmxCell%3E%3C%2Froot%3E%3C%2FmxGraphModel%3E&lt;/span&gt;" style="rounded=0;whiteSpace=wrap;html=1;fillColor=#dae8fc;strokeColor=#6c8ebf;" parent="1" vertex="1">
          <mxGeometry x="760" y="520" width="160" height="20" as="geometry" />
        </mxCell>
        <mxCell id="XwEQovFYGwXoTj2P0Iut-164" value="120 t&lt;span style=&quot;color: rgba(0 , 0 , 0 , 0) ; font-family: monospace ; font-size: 0px&quot;&gt;%3CmxGraphModel%3E%3Croot%3E%3CmxCell%20id%3D%220%22%2F%3E%3CmxCell%20id%3D%221%22%20parent%3D%220%22%2F%3E%3CmxCell%20id%3D%222%22%20value%3D%22Mixer%22%20style%3D%22rounded%3D0%3BwhiteSpace%3Dwrap%3Bhtml%3D1%3BfillColor%3D%23f5f5f5%3BstrokeColor%3D%23666666%3BfontColor%3D%23333333%3B%22%20vertex%3D%221%22%20parent%3D%221%22%3E%3CmxGeometry%20x%3D%2280%22%20y%3D%2240%22%20width%3D%22120%22%20height%3D%2240%22%20as%3D%22geometry%22%2F%3E%3C%2FmxCell%3E%3C%2Froot%3E%3C%2FmxGraphModel%3E&lt;/span&gt;" style="rounded=0;whiteSpace=wrap;html=1;fillColor=#dae8fc;strokeColor=#6c8ebf;" parent="1" vertex="1">
          <mxGeometry x="760" y="540" width="160" height="20" as="geometry" />
        </mxCell>
        <mxCell id="XwEQovFYGwXoTj2P0Iut-165" value="&lt;font style=&quot;font-size: 12px&quot;&gt;Gold Dust x1&lt;/font&gt;" style="rounded=0;whiteSpace=wrap;html=1;fillColor=#f8cecc;strokeColor=#b85450;" parent="1" vertex="1">
          <mxGeometry x="760" y="560" width="160" height="20" as="geometry" />
        </mxCell>
        <mxCell id="XwEQovFYGwXoTj2P0Iut-166" value="&lt;font style=&quot;font-size: 12px&quot;&gt;Sodium Cyanide x1000L&lt;/font&gt;" style="rounded=0;whiteSpace=wrap;html=1;fillColor=#f8cecc;strokeColor=#b85450;" parent="1" vertex="1">
          <mxGeometry x="760" y="580" width="160" height="20" as="geometry" />
        </mxCell>
        <mxCell id="XwEQovFYGwXoTj2P0Iut-167" value="" style="endArrow=none;html=1;exitX=0;exitY=0.5;exitDx=0;exitDy=0;rounded=0;dashed=1;endFill=0;" parent="1" source="XwEQovFYGwXoTj2P0Iut-166" edge="1">
          <mxGeometry width="50" height="50" relative="1" as="geometry">
            <mxPoint x="700" y="490" as="sourcePoint" />
            <mxPoint x="730" y="310" as="targetPoint" />
            <Array as="points">
              <mxPoint x="730" y="590" />
              <mxPoint x="730" y="510" />
            </Array>
          </mxGeometry>
        </mxCell>
        <mxCell id="XwEQovFYGwXoTj2P0Iut-168" value="" style="endArrow=classic;html=1;entryX=0;entryY=0.5;entryDx=0;entryDy=0;rounded=0;" parent="1" target="XwEQovFYGwXoTj2P0Iut-160" edge="1">
          <mxGeometry width="50" height="50" relative="1" as="geometry">
            <mxPoint x="920" y="410" as="sourcePoint" />
            <mxPoint x="890" y="420" as="targetPoint" />
            <Array as="points">
              <mxPoint x="940" y="410" />
              <mxPoint x="940" y="440" />
              <mxPoint x="740" y="440" />
              <mxPoint x="740" y="510" />
            </Array>
          </mxGeometry>
        </mxCell>
        <mxCell id="XwEQovFYGwXoTj2P0Iut-170" value="Chemical Reactor" style="rounded=0;whiteSpace=wrap;html=1;fillColor=#f5f5f5;strokeColor=#666666;fontColor=#333333;" parent="1" vertex="1">
          <mxGeometry x="1000" y="280" width="160" height="20" as="geometry" />
        </mxCell>
        <mxCell id="XwEQovFYGwXoTj2P0Iut-171" value="&lt;font style=&quot;font-size: 12px&quot;&gt;Gold Depleted Triniite x3&lt;/font&gt;" style="rounded=0;whiteSpace=wrap;html=1;fillColor=#d5e8d4;strokeColor=#82b366;" parent="1" vertex="1">
          <mxGeometry x="1000" y="300" width="160" height="20" as="geometry" />
        </mxCell>
        <mxCell id="XwEQovFYGwXoTj2P0Iut-172" value="&lt;font style=&quot;font-size: 12px&quot;&gt;Iron (III) Chloride x500L&lt;/font&gt;" style="rounded=0;whiteSpace=wrap;html=1;fillColor=#d5e8d4;strokeColor=#82b366;" parent="1" vertex="1">
          <mxGeometry x="1000" y="320" width="160" height="20" as="geometry" />
        </mxCell>
        <mxCell id="XwEQovFYGwXoTj2P0Iut-174" value="30720 eu/t&lt;span style=&quot;color: rgba(0 , 0 , 0 , 0) ; font-family: monospace ; font-size: 0px&quot;&gt;%3CmxGraphModel%3E%3Croot%3E%3CmxCell%20id%3D%220%22%2F%3E%3CmxCell%20id%3D%221%22%20parent%3D%220%22%2F%3E%3CmxCell%20id%3D%222%22%20value%3D%22Mixer%22%20style%3D%22rounded%3D0%3BwhiteSpace%3Dwrap%3Bhtml%3D1%3BfillColor%3D%23f5f5f5%3BstrokeColor%3D%23666666%3BfontColor%3D%23333333%3B%22%20vertex%3D%221%22%20parent%3D%221%22%3E%3CmxGeometry%20x%3D%2280%22%20y%3D%2240%22%20width%3D%22120%22%20height%3D%2240%22%20as%3D%22geometry%22%2F%3E%3C%2FmxCell%3E%3C%2Froot%3E%3C%2FmxGraphModel%3E&lt;/span&gt;" style="rounded=0;whiteSpace=wrap;html=1;fillColor=#dae8fc;strokeColor=#6c8ebf;" parent="1" vertex="1">
          <mxGeometry x="1000" y="340" width="160" height="20" as="geometry" />
        </mxCell>
        <mxCell id="XwEQovFYGwXoTj2P0Iut-175" value="10 t&lt;span style=&quot;color: rgba(0 , 0 , 0 , 0) ; font-family: monospace ; font-size: 0px&quot;&gt;%3CmxGraphModel%3E%3Croot%3E%3CmxCell%20id%3D%220%22%2F%3E%3CmxCell%20id%3D%221%22%20parent%3D%220%22%2F%3E%3CmxCell%20id%3D%222%22%20value%3D%22Mixer%22%20style%3D%22rounded%3D0%3BwhiteSpace%3Dwrap%3Bhtml%3D1%3BfillColor%3D%23f5f5f5%3BstrokeColor%3D%23666666%3BfontColor%3D%23333333%3B%22%20vertex%3D%221%22%20parent%3D%221%22%3E%3CmxGeometry%20x%3D%2280%22%20y%3D%2240%22%20width%3D%22120%22%20height%3D%2240%22%20as%3D%22geometry%22%2F%3E%3C%2FmxCell%3E%3C%2Froot%3E%3C%2FmxGraphModel%3E&lt;/span&gt;" style="rounded=0;whiteSpace=wrap;html=1;fillColor=#dae8fc;strokeColor=#6c8ebf;" parent="1" vertex="1">
          <mxGeometry x="1000" y="360" width="160" height="20" as="geometry" />
        </mxCell>
        <mxCell id="XwEQovFYGwXoTj2P0Iut-176" value="&lt;font style=&quot;font-size: 12px&quot;&gt;Trinium Concentrate x3&lt;/font&gt;" style="rounded=0;whiteSpace=wrap;html=1;fillColor=#f8cecc;strokeColor=#b85450;" parent="1" vertex="1">
          <mxGeometry x="1000" y="380" width="160" height="20" as="geometry" />
        </mxCell>
        <mxCell id="XwEQovFYGwXoTj2P0Iut-177" value="&lt;font style=&quot;font-size: 10px&quot;&gt;Chloride leached Solution x500L&lt;/font&gt;" style="rounded=0;whiteSpace=wrap;html=1;fillColor=#f8cecc;strokeColor=#b85450;" parent="1" vertex="1">
          <mxGeometry x="1000" y="400" width="160" height="20" as="geometry" />
        </mxCell>
        <mxCell id="XwEQovFYGwXoTj2P0Iut-178" value="" style="endArrow=classic;html=1;startSize=10;endSize=10;exitX=1;exitY=0.5;exitDx=0;exitDy=0;entryX=0;entryY=0.5;entryDx=0;entryDy=0;rounded=0;strokeWidth=3;" parent="1" source="XwEQovFYGwXoTj2P0Iut-135" target="XwEQovFYGwXoTj2P0Iut-171" edge="1">
          <mxGeometry width="50" height="50" relative="1" as="geometry">
            <mxPoint x="1000" y="450" as="sourcePoint" />
            <mxPoint x="1050" y="400" as="targetPoint" />
            <Array as="points">
              <mxPoint x="960" y="390" />
              <mxPoint x="960" y="310" />
            </Array>
          </mxGeometry>
        </mxCell>
        <mxCell id="XwEQovFYGwXoTj2P0Iut-179" value="Centrifuge" style="rounded=0;whiteSpace=wrap;html=1;fillColor=#f5f5f5;strokeColor=#666666;fontColor=#333333;" parent="1" vertex="1">
          <mxGeometry x="1000" y="460" width="160" height="20" as="geometry" />
        </mxCell>
        <mxCell id="XwEQovFYGwXoTj2P0Iut-180" value="&lt;font style=&quot;font-size: 10px&quot;&gt;Chloride leached Solution x500L&lt;/font&gt;" style="rounded=0;whiteSpace=wrap;html=1;fillColor=#d5e8d4;strokeColor=#82b366;" parent="1" vertex="1">
          <mxGeometry x="1000" y="480" width="160" height="20" as="geometry" />
        </mxCell>
        <mxCell id="XwEQovFYGwXoTj2P0Iut-185" value="480 eu/t&lt;span style=&quot;color: rgba(0 , 0 , 0 , 0) ; font-family: monospace ; font-size: 0px&quot;&gt;%3CmxGraphModel%3E%3Croot%3E%3CmxCell%20id%3D%220%22%2F%3E%3CmxCell%20id%3D%221%22%20parent%3D%220%22%2F%3E%3CmxCell%20id%3D%222%22%20value%3D%22Mixer%22%20style%3D%22rounded%3D0%3BwhiteSpace%3Dwrap%3Bhtml%3D1%3BfillColor%3D%23f5f5f5%3BstrokeColor%3D%23666666%3BfontColor%3D%23333333%3B%22%20vertex%3D%221%22%20parent%3D%221%22%3E%3CmxGeometry%20x%3D%2280%22%20y%3D%2240%22%20width%3D%22120%22%20height%3D%2240%22%20as%3D%22geometry%22%2F%3E%3C%2FmxCell%3E%3C%2Froot%3E%3C%2FmxGraphModel%3E&lt;/span&gt;" style="rounded=0;whiteSpace=wrap;html=1;fillColor=#dae8fc;strokeColor=#6c8ebf;" parent="1" vertex="1">
          <mxGeometry x="1000" y="500" width="160" height="20" as="geometry" />
        </mxCell>
        <mxCell id="XwEQovFYGwXoTj2P0Iut-186" value="200 t&lt;span style=&quot;color: rgba(0 , 0 , 0 , 0) ; font-family: monospace ; font-size: 0px&quot;&gt;%3CmxGraphModel%3E%3Croot%3E%3CmxCell%20id%3D%220%22%2F%3E%3CmxCell%20id%3D%221%22%20parent%3D%220%22%2F%3E%3CmxCell%20id%3D%222%22%20value%3D%22Mixer%22%20style%3D%22rounded%3D0%3BwhiteSpace%3Dwrap%3Bhtml%3D1%3BfillColor%3D%23f5f5f5%3BstrokeColor%3D%23666666%3BfontColor%3D%23333333%3B%22%20vertex%3D%221%22%20parent%3D%221%22%3E%3CmxGeometry%20x%3D%2280%22%20y%3D%2240%22%20width%3D%22120%22%20height%3D%2240%22%20as%3D%22geometry%22%2F%3E%3C%2FmxCell%3E%3C%2Froot%3E%3C%2FmxGraphModel%3E&lt;/span&gt;" style="rounded=0;whiteSpace=wrap;html=1;fillColor=#dae8fc;strokeColor=#6c8ebf;" parent="1" vertex="1">
          <mxGeometry x="1000" y="520" width="160" height="20" as="geometry" />
        </mxCell>
        <mxCell id="XwEQovFYGwXoTj2P0Iut-187" value="&lt;font style=&quot;font-size: 12px&quot;&gt;Chlorine x500L&lt;/font&gt;" style="rounded=0;whiteSpace=wrap;html=1;fillColor=#f8cecc;strokeColor=#b85450;" parent="1" vertex="1">
          <mxGeometry x="1000" y="540" width="160" height="20" as="geometry" />
        </mxCell>
        <mxCell id="XwEQovFYGwXoTj2P0Iut-188" value="&lt;font style=&quot;font-size: 12px&quot;&gt;Copper Chloride Dust x3&lt;/font&gt;" style="rounded=0;whiteSpace=wrap;html=1;fillColor=#f8cecc;strokeColor=#b85450;" parent="1" vertex="1">
          <mxGeometry x="1000" y="560" width="160" height="20" as="geometry" />
        </mxCell>
        <mxCell id="XwEQovFYGwXoTj2P0Iut-189" value="&lt;font style=&quot;font-size: 12px&quot;&gt;Lead Chloride Dust x3&lt;/font&gt;" style="rounded=0;whiteSpace=wrap;html=1;fillColor=#f8cecc;strokeColor=#b85450;" parent="1" vertex="1">
          <mxGeometry x="1000" y="580" width="160" height="20" as="geometry" />
        </mxCell>
        <mxCell id="XwEQovFYGwXoTj2P0Iut-190" value="&lt;font style=&quot;font-size: 12px&quot;&gt;Silver Chloride Dust x3&lt;/font&gt;" style="rounded=0;whiteSpace=wrap;html=1;fillColor=#f8cecc;strokeColor=#b85450;" parent="1" vertex="1">
          <mxGeometry x="1000" y="600" width="160" height="20" as="geometry" />
        </mxCell>
        <mxCell id="XwEQovFYGwXoTj2P0Iut-191" value="&lt;font style=&quot;font-size: 12px&quot;&gt;Bismuth Chloride Dust x4&lt;/font&gt;" style="rounded=0;whiteSpace=wrap;html=1;fillColor=#f8cecc;strokeColor=#b85450;" parent="1" vertex="1">
          <mxGeometry x="1000" y="620" width="160" height="20" as="geometry" />
        </mxCell>
        <mxCell id="XwEQovFYGwXoTj2P0Iut-192" value="" style="endArrow=classic;html=1;startSize=6;endSize=6;exitX=1;exitY=0.5;exitDx=0;exitDy=0;entryX=0;entryY=0.5;entryDx=0;entryDy=0;rounded=0;" parent="1" source="XwEQovFYGwXoTj2P0Iut-177" target="XwEQovFYGwXoTj2P0Iut-180" edge="1">
          <mxGeometry width="50" height="50" relative="1" as="geometry">
            <mxPoint x="1040" y="510" as="sourcePoint" />
            <mxPoint x="1090" y="460" as="targetPoint" />
            <Array as="points">
              <mxPoint x="1180" y="410" />
              <mxPoint x="1180" y="440" />
              <mxPoint x="980" y="440" />
              <mxPoint x="980" y="490" />
            </Array>
          </mxGeometry>
        </mxCell>
        <mxCell id="XwEQovFYGwXoTj2P0Iut-193" value="Electrolyzer" style="rounded=0;whiteSpace=wrap;html=1;fillColor=#f5f5f5;strokeColor=#666666;fontColor=#333333;" parent="1" vertex="1">
          <mxGeometry x="760" y="680" width="160" height="20" as="geometry" />
        </mxCell>
        <mxCell id="XwEQovFYGwXoTj2P0Iut-194" value="Bismuth Chloride Dust x4" style="rounded=0;whiteSpace=wrap;html=1;fillColor=#d5e8d4;strokeColor=#82b366;" parent="1" vertex="1">
          <mxGeometry x="760" y="700" width="160" height="20" as="geometry" />
        </mxCell>
        <mxCell id="XwEQovFYGwXoTj2P0Iut-195" value="480 eu/t&lt;span style=&quot;color: rgba(0 , 0 , 0 , 0) ; font-family: monospace ; font-size: 0px&quot;&gt;%3CmxGraphModel%3E%3Croot%3E%3CmxCell%20id%3D%220%22%2F%3E%3CmxCell%20id%3D%221%22%20parent%3D%220%22%2F%3E%3CmxCell%20id%3D%222%22%20value%3D%22Mixer%22%20style%3D%22rounded%3D0%3BwhiteSpace%3Dwrap%3Bhtml%3D1%3BfillColor%3D%23f5f5f5%3BstrokeColor%3D%23666666%3BfontColor%3D%23333333%3B%22%20vertex%3D%221%22%20parent%3D%221%22%3E%3CmxGeometry%20x%3D%2280%22%20y%3D%2240%22%20width%3D%22120%22%20height%3D%2240%22%20as%3D%22geometry%22%2F%3E%3C%2FmxCell%3E%3C%2Froot%3E%3C%2FmxGraphModel%3E&lt;/span&gt;" style="rounded=0;whiteSpace=wrap;html=1;fillColor=#dae8fc;strokeColor=#6c8ebf;" parent="1" vertex="1">
          <mxGeometry x="760" y="720" width="160" height="20" as="geometry" />
        </mxCell>
        <mxCell id="XwEQovFYGwXoTj2P0Iut-196" value="100 t&lt;span style=&quot;color: rgba(0 , 0 , 0 , 0) ; font-family: monospace ; font-size: 0px&quot;&gt;%3CmxGraphModel%3E%3Croot%3E%3CmxCell%20id%3D%220%22%2F%3E%3CmxCell%20id%3D%221%22%20parent%3D%220%22%2F%3E%3CmxCell%20id%3D%222%22%20value%3D%22Mixer%22%20style%3D%22rounded%3D0%3BwhiteSpace%3Dwrap%3Bhtml%3D1%3BfillColor%3D%23f5f5f5%3BstrokeColor%3D%23666666%3BfontColor%3D%23333333%3B%22%20vertex%3D%221%22%20parent%3D%221%22%3E%3CmxGeometry%20x%3D%2280%22%20y%3D%2240%22%20width%3D%22120%22%20height%3D%2240%22%20as%3D%22geometry%22%2F%3E%3C%2FmxCell%3E%3C%2Froot%3E%3C%2FmxGraphModel%3E&lt;/span&gt;" style="rounded=0;whiteSpace=wrap;html=1;fillColor=#dae8fc;strokeColor=#6c8ebf;" parent="1" vertex="1">
          <mxGeometry x="760" y="740" width="160" height="20" as="geometry" />
        </mxCell>
        <mxCell id="XwEQovFYGwXoTj2P0Iut-197" value="&lt;font style=&quot;font-size: 12px&quot;&gt;Bismuth Dust x1&lt;/font&gt;" style="rounded=0;whiteSpace=wrap;html=1;fillColor=#f8cecc;strokeColor=#b85450;" parent="1" vertex="1">
          <mxGeometry x="760" y="760" width="160" height="20" as="geometry" />
        </mxCell>
        <mxCell id="XwEQovFYGwXoTj2P0Iut-198" value="&lt;font style=&quot;font-size: 12px&quot;&gt;Chlorine x3000L&lt;/font&gt;" style="rounded=0;whiteSpace=wrap;html=1;fillColor=#f8cecc;strokeColor=#b85450;" parent="1" vertex="1">
          <mxGeometry x="760" y="780" width="160" height="20" as="geometry" />
        </mxCell>
        <mxCell id="XwEQovFYGwXoTj2P0Iut-200" value="Electrolyzer" style="rounded=0;whiteSpace=wrap;html=1;fillColor=#f5f5f5;strokeColor=#666666;fontColor=#333333;" parent="1" vertex="1">
          <mxGeometry x="1000" y="680" width="160" height="20" as="geometry" />
        </mxCell>
        <mxCell id="XwEQovFYGwXoTj2P0Iut-201" value="Silver Chloride Dust x3" style="rounded=0;whiteSpace=wrap;html=1;fillColor=#d5e8d4;strokeColor=#82b366;" parent="1" vertex="1">
          <mxGeometry x="1000" y="700" width="160" height="20" as="geometry" />
        </mxCell>
        <mxCell id="XwEQovFYGwXoTj2P0Iut-202" value="480 eu/t&lt;span style=&quot;color: rgba(0 , 0 , 0 , 0) ; font-family: monospace ; font-size: 0px&quot;&gt;%3CmxGraphModel%3E%3Croot%3E%3CmxCell%20id%3D%220%22%2F%3E%3CmxCell%20id%3D%221%22%20parent%3D%220%22%2F%3E%3CmxCell%20id%3D%222%22%20value%3D%22Mixer%22%20style%3D%22rounded%3D0%3BwhiteSpace%3Dwrap%3Bhtml%3D1%3BfillColor%3D%23f5f5f5%3BstrokeColor%3D%23666666%3BfontColor%3D%23333333%3B%22%20vertex%3D%221%22%20parent%3D%221%22%3E%3CmxGeometry%20x%3D%2280%22%20y%3D%2240%22%20width%3D%22120%22%20height%3D%2240%22%20as%3D%22geometry%22%2F%3E%3C%2FmxCell%3E%3C%2Froot%3E%3C%2FmxGraphModel%3E&lt;/span&gt;" style="rounded=0;whiteSpace=wrap;html=1;fillColor=#dae8fc;strokeColor=#6c8ebf;" parent="1" vertex="1">
          <mxGeometry x="1000" y="720" width="160" height="20" as="geometry" />
        </mxCell>
        <mxCell id="XwEQovFYGwXoTj2P0Iut-203" value="100 t&lt;span style=&quot;color: rgba(0 , 0 , 0 , 0) ; font-family: monospace ; font-size: 0px&quot;&gt;%3CmxGraphModel%3E%3Croot%3E%3CmxCell%20id%3D%220%22%2F%3E%3CmxCell%20id%3D%221%22%20parent%3D%220%22%2F%3E%3CmxCell%20id%3D%222%22%20value%3D%22Mixer%22%20style%3D%22rounded%3D0%3BwhiteSpace%3Dwrap%3Bhtml%3D1%3BfillColor%3D%23f5f5f5%3BstrokeColor%3D%23666666%3BfontColor%3D%23333333%3B%22%20vertex%3D%221%22%20parent%3D%221%22%3E%3CmxGeometry%20x%3D%2280%22%20y%3D%2240%22%20width%3D%22120%22%20height%3D%2240%22%20as%3D%22geometry%22%2F%3E%3C%2FmxCell%3E%3C%2Froot%3E%3C%2FmxGraphModel%3E&lt;/span&gt;" style="rounded=0;whiteSpace=wrap;html=1;fillColor=#dae8fc;strokeColor=#6c8ebf;" parent="1" vertex="1">
          <mxGeometry x="1000" y="740" width="160" height="20" as="geometry" />
        </mxCell>
        <mxCell id="XwEQovFYGwXoTj2P0Iut-204" value="&lt;font style=&quot;font-size: 12px&quot;&gt;Silver Dust x1&lt;/font&gt;" style="rounded=0;whiteSpace=wrap;html=1;fillColor=#f8cecc;strokeColor=#b85450;" parent="1" vertex="1">
          <mxGeometry x="1000" y="760" width="160" height="20" as="geometry" />
        </mxCell>
        <mxCell id="XwEQovFYGwXoTj2P0Iut-205" value="&lt;font style=&quot;font-size: 12px&quot;&gt;Chlorine x2000L&lt;/font&gt;" style="rounded=0;whiteSpace=wrap;html=1;fillColor=#f8cecc;strokeColor=#b85450;" parent="1" vertex="1">
          <mxGeometry x="1000" y="780" width="160" height="20" as="geometry" />
        </mxCell>
        <mxCell id="XwEQovFYGwXoTj2P0Iut-206" value="Electrolyzer" style="rounded=0;whiteSpace=wrap;html=1;fillColor=#f5f5f5;strokeColor=#666666;fontColor=#333333;" parent="1" vertex="1">
          <mxGeometry x="760" y="840" width="160" height="20" as="geometry" />
        </mxCell>
        <mxCell id="XwEQovFYGwXoTj2P0Iut-207" value="Lead Chloride Dust x3" style="rounded=0;whiteSpace=wrap;html=1;fillColor=#d5e8d4;strokeColor=#82b366;" parent="1" vertex="1">
          <mxGeometry x="760" y="860" width="160" height="20" as="geometry" />
        </mxCell>
        <mxCell id="XwEQovFYGwXoTj2P0Iut-208" value="480 eu/t&lt;span style=&quot;color: rgba(0 , 0 , 0 , 0) ; font-family: monospace ; font-size: 0px&quot;&gt;%3CmxGraphModel%3E%3Croot%3E%3CmxCell%20id%3D%220%22%2F%3E%3CmxCell%20id%3D%221%22%20parent%3D%220%22%2F%3E%3CmxCell%20id%3D%222%22%20value%3D%22Mixer%22%20style%3D%22rounded%3D0%3BwhiteSpace%3Dwrap%3Bhtml%3D1%3BfillColor%3D%23f5f5f5%3BstrokeColor%3D%23666666%3BfontColor%3D%23333333%3B%22%20vertex%3D%221%22%20parent%3D%221%22%3E%3CmxGeometry%20x%3D%2280%22%20y%3D%2240%22%20width%3D%22120%22%20height%3D%2240%22%20as%3D%22geometry%22%2F%3E%3C%2FmxCell%3E%3C%2Froot%3E%3C%2FmxGraphModel%3E&lt;/span&gt;" style="rounded=0;whiteSpace=wrap;html=1;fillColor=#dae8fc;strokeColor=#6c8ebf;" parent="1" vertex="1">
          <mxGeometry x="760" y="880" width="160" height="20" as="geometry" />
        </mxCell>
        <mxCell id="XwEQovFYGwXoTj2P0Iut-209" value="100 t&lt;span style=&quot;color: rgba(0 , 0 , 0 , 0) ; font-family: monospace ; font-size: 0px&quot;&gt;%3CmxGraphModel%3E%3Croot%3E%3CmxCell%20id%3D%220%22%2F%3E%3CmxCell%20id%3D%221%22%20parent%3D%220%22%2F%3E%3CmxCell%20id%3D%222%22%20value%3D%22Mixer%22%20style%3D%22rounded%3D0%3BwhiteSpace%3Dwrap%3Bhtml%3D1%3BfillColor%3D%23f5f5f5%3BstrokeColor%3D%23666666%3BfontColor%3D%23333333%3B%22%20vertex%3D%221%22%20parent%3D%221%22%3E%3CmxGeometry%20x%3D%2280%22%20y%3D%2240%22%20width%3D%22120%22%20height%3D%2240%22%20as%3D%22geometry%22%2F%3E%3C%2FmxCell%3E%3C%2Froot%3E%3C%2FmxGraphModel%3E&lt;/span&gt;" style="rounded=0;whiteSpace=wrap;html=1;fillColor=#dae8fc;strokeColor=#6c8ebf;" parent="1" vertex="1">
          <mxGeometry x="760" y="900" width="160" height="20" as="geometry" />
        </mxCell>
        <mxCell id="XwEQovFYGwXoTj2P0Iut-210" value="&lt;font style=&quot;font-size: 12px&quot;&gt;Lead Dust x1&lt;/font&gt;" style="rounded=0;whiteSpace=wrap;html=1;fillColor=#f8cecc;strokeColor=#b85450;" parent="1" vertex="1">
          <mxGeometry x="760" y="920" width="160" height="20" as="geometry" />
        </mxCell>
        <mxCell id="XwEQovFYGwXoTj2P0Iut-211" value="&lt;font style=&quot;font-size: 12px&quot;&gt;Chlorine x2000L&lt;/font&gt;" style="rounded=0;whiteSpace=wrap;html=1;fillColor=#f8cecc;strokeColor=#b85450;" parent="1" vertex="1">
          <mxGeometry x="760" y="940" width="160" height="20" as="geometry" />
        </mxCell>
        <mxCell id="XwEQovFYGwXoTj2P0Iut-212" value="Electrolyzer" style="rounded=0;whiteSpace=wrap;html=1;fillColor=#f5f5f5;strokeColor=#666666;fontColor=#333333;" parent="1" vertex="1">
          <mxGeometry x="1000" y="840" width="160" height="20" as="geometry" />
        </mxCell>
        <mxCell id="XwEQovFYGwXoTj2P0Iut-213" value="Copper Chloride Dust x3" style="rounded=0;whiteSpace=wrap;html=1;fillColor=#d5e8d4;strokeColor=#82b366;" parent="1" vertex="1">
          <mxGeometry x="1000" y="860" width="160" height="20" as="geometry" />
        </mxCell>
        <mxCell id="XwEQovFYGwXoTj2P0Iut-214" value="480 eu/t&lt;span style=&quot;color: rgba(0 , 0 , 0 , 0) ; font-family: monospace ; font-size: 0px&quot;&gt;%3CmxGraphModel%3E%3Croot%3E%3CmxCell%20id%3D%220%22%2F%3E%3CmxCell%20id%3D%221%22%20parent%3D%220%22%2F%3E%3CmxCell%20id%3D%222%22%20value%3D%22Mixer%22%20style%3D%22rounded%3D0%3BwhiteSpace%3Dwrap%3Bhtml%3D1%3BfillColor%3D%23f5f5f5%3BstrokeColor%3D%23666666%3BfontColor%3D%23333333%3B%22%20vertex%3D%221%22%20parent%3D%221%22%3E%3CmxGeometry%20x%3D%2280%22%20y%3D%2240%22%20width%3D%22120%22%20height%3D%2240%22%20as%3D%22geometry%22%2F%3E%3C%2FmxCell%3E%3C%2Froot%3E%3C%2FmxGraphModel%3E&lt;/span&gt;" style="rounded=0;whiteSpace=wrap;html=1;fillColor=#dae8fc;strokeColor=#6c8ebf;" parent="1" vertex="1">
          <mxGeometry x="1000" y="880" width="160" height="20" as="geometry" />
        </mxCell>
        <mxCell id="XwEQovFYGwXoTj2P0Iut-215" value="100 t&lt;span style=&quot;color: rgba(0 , 0 , 0 , 0) ; font-family: monospace ; font-size: 0px&quot;&gt;%3CmxGraphModel%3E%3Croot%3E%3CmxCell%20id%3D%220%22%2F%3E%3CmxCell%20id%3D%221%22%20parent%3D%220%22%2F%3E%3CmxCell%20id%3D%222%22%20value%3D%22Mixer%22%20style%3D%22rounded%3D0%3BwhiteSpace%3Dwrap%3Bhtml%3D1%3BfillColor%3D%23f5f5f5%3BstrokeColor%3D%23666666%3BfontColor%3D%23333333%3B%22%20vertex%3D%221%22%20parent%3D%221%22%3E%3CmxGeometry%20x%3D%2280%22%20y%3D%2240%22%20width%3D%22120%22%20height%3D%2240%22%20as%3D%22geometry%22%2F%3E%3C%2FmxCell%3E%3C%2Froot%3E%3C%2FmxGraphModel%3E&lt;/span&gt;" style="rounded=0;whiteSpace=wrap;html=1;fillColor=#dae8fc;strokeColor=#6c8ebf;" parent="1" vertex="1">
          <mxGeometry x="1000" y="900" width="160" height="20" as="geometry" />
        </mxCell>
        <mxCell id="XwEQovFYGwXoTj2P0Iut-216" value="&lt;font style=&quot;font-size: 12px&quot;&gt;Copper Dust x1&lt;/font&gt;" style="rounded=0;whiteSpace=wrap;html=1;fillColor=#f8cecc;strokeColor=#b85450;" parent="1" vertex="1">
          <mxGeometry x="1000" y="920" width="160" height="20" as="geometry" />
        </mxCell>
        <mxCell id="XwEQovFYGwXoTj2P0Iut-217" value="&lt;font style=&quot;font-size: 12px&quot;&gt;Chlorine x2000L&lt;/font&gt;" style="rounded=0;whiteSpace=wrap;html=1;fillColor=#f8cecc;strokeColor=#b85450;" parent="1" vertex="1">
          <mxGeometry x="1000" y="940" width="160" height="20" as="geometry" />
        </mxCell>
        <mxCell id="XwEQovFYGwXoTj2P0Iut-218" value="" style="endArrow=classic;html=1;startSize=6;endSize=6;exitX=1;exitY=0.5;exitDx=0;exitDy=0;rounded=0;entryX=0;entryY=0.5;entryDx=0;entryDy=0;" parent="1" source="XwEQovFYGwXoTj2P0Iut-191" target="XwEQovFYGwXoTj2P0Iut-194" edge="1">
          <mxGeometry width="50" height="50" relative="1" as="geometry">
            <mxPoint x="1050" y="760" as="sourcePoint" />
            <mxPoint x="1100" y="710" as="targetPoint" />
            <Array as="points">
              <mxPoint x="1170" y="630" />
              <mxPoint x="1170" y="650" />
              <mxPoint x="740" y="650" />
              <mxPoint x="740" y="710" />
            </Array>
          </mxGeometry>
        </mxCell>
        <mxCell id="XwEQovFYGwXoTj2P0Iut-219" value="" style="endArrow=classic;html=1;startSize=6;endSize=6;exitX=1;exitY=0.5;exitDx=0;exitDy=0;entryX=0;entryY=0.5;entryDx=0;entryDy=0;rounded=0;" parent="1" source="XwEQovFYGwXoTj2P0Iut-190" target="XwEQovFYGwXoTj2P0Iut-201" edge="1">
          <mxGeometry width="50" height="50" relative="1" as="geometry">
            <mxPoint x="1030" y="720" as="sourcePoint" />
            <mxPoint x="1080" y="670" as="targetPoint" />
            <Array as="points">
              <mxPoint x="1190" y="610" />
              <mxPoint x="1190" y="670" />
              <mxPoint x="980" y="670" />
              <mxPoint x="980" y="710" />
            </Array>
          </mxGeometry>
        </mxCell>
        <mxCell id="XwEQovFYGwXoTj2P0Iut-220" value="" style="endArrow=classic;html=1;startSize=6;endSize=6;exitX=1;exitY=0.5;exitDx=0;exitDy=0;entryX=0;entryY=0.5;entryDx=0;entryDy=0;rounded=0;" parent="1" source="XwEQovFYGwXoTj2P0Iut-189" target="XwEQovFYGwXoTj2P0Iut-207" edge="1">
          <mxGeometry width="50" height="50" relative="1" as="geometry">
            <mxPoint x="1030" y="780" as="sourcePoint" />
            <mxPoint x="1080" y="730" as="targetPoint" />
            <Array as="points">
              <mxPoint x="1210" y="590" />
              <mxPoint x="1210" y="810" />
              <mxPoint x="740" y="810" />
              <mxPoint x="740" y="870" />
            </Array>
          </mxGeometry>
        </mxCell>
        <mxCell id="XwEQovFYGwXoTj2P0Iut-221" value="" style="endArrow=classic;html=1;startSize=6;endSize=6;exitX=1;exitY=0.5;exitDx=0;exitDy=0;entryX=0;entryY=0.5;entryDx=0;entryDy=0;rounded=0;" parent="1" source="XwEQovFYGwXoTj2P0Iut-188" target="XwEQovFYGwXoTj2P0Iut-213" edge="1">
          <mxGeometry width="50" height="50" relative="1" as="geometry">
            <mxPoint x="1030" y="780" as="sourcePoint" />
            <mxPoint x="1080" y="730" as="targetPoint" />
            <Array as="points">
              <mxPoint x="1230" y="570" />
              <mxPoint x="1230" y="830" />
              <mxPoint x="980" y="830" />
              <mxPoint x="980" y="870" />
            </Array>
          </mxGeometry>
        </mxCell>
        <mxCell id="XwEQovFYGwXoTj2P0Iut-222" value="Chemical Reactor" style="rounded=0;whiteSpace=wrap;html=1;fillColor=#f5f5f5;strokeColor=#666666;fontColor=#333333;" parent="1" vertex="1">
          <mxGeometry x="1240" y="280" width="160" height="20" as="geometry" />
        </mxCell>
        <mxCell id="XwEQovFYGwXoTj2P0Iut-223" value="&lt;font style=&quot;font-size: 12px&quot;&gt;Trinium Concentrate x3&lt;/font&gt;" style="rounded=0;whiteSpace=wrap;html=1;fillColor=#d5e8d4;strokeColor=#82b366;" parent="1" vertex="1">
          <mxGeometry x="1240" y="300" width="160" height="20" as="geometry" />
        </mxCell>
        <mxCell id="XwEQovFYGwXoTj2P0Iut-224" value="&lt;font style=&quot;font-size: 12px&quot;&gt;Oxygen x4000L&lt;/font&gt;" style="rounded=0;whiteSpace=wrap;html=1;fillColor=#d5e8d4;strokeColor=#82b366;" parent="1" vertex="1">
          <mxGeometry x="1240" y="320" width="160" height="20" as="geometry" />
        </mxCell>
        <mxCell id="XwEQovFYGwXoTj2P0Iut-233" value="30720 eu/t&lt;span style=&quot;color: rgba(0 , 0 , 0 , 0) ; font-family: monospace ; font-size: 0px&quot;&gt;%3CmxGraphModel%3E%3Croot%3E%3CmxCell%20id%3D%220%22%2F%3E%3CmxCell%20id%3D%221%22%20parent%3D%220%22%2F%3E%3CmxCell%20id%3D%222%22%20value%3D%22Mixer%22%20style%3D%22rounded%3D0%3BwhiteSpace%3Dwrap%3Bhtml%3D1%3BfillColor%3D%23f5f5f5%3BstrokeColor%3D%23666666%3BfontColor%3D%23333333%3B%22%20vertex%3D%221%22%20parent%3D%221%22%3E%3CmxGeometry%20x%3D%2280%22%20y%3D%2240%22%20width%3D%22120%22%20height%3D%2240%22%20as%3D%22geometry%22%2F%3E%3C%2FmxCell%3E%3C%2Froot%3E%3C%2FmxGraphModel%3E&lt;/span&gt;" style="rounded=0;whiteSpace=wrap;html=1;fillColor=#dae8fc;strokeColor=#6c8ebf;" parent="1" vertex="1">
          <mxGeometry x="1240" y="340" width="160" height="20" as="geometry" />
        </mxCell>
        <mxCell id="XwEQovFYGwXoTj2P0Iut-234" value="40 t&lt;span style=&quot;color: rgba(0 , 0 , 0 , 0) ; font-family: monospace ; font-size: 0px&quot;&gt;%3CmxGraphModel%3E%3Croot%3E%3CmxCell%20id%3D%220%22%2F%3E%3CmxCell%20id%3D%221%22%20parent%3D%220%22%2F%3E%3CmxCell%20id%3D%222%22%20value%3D%22Mixer%22%20style%3D%22rounded%3D0%3BwhiteSpace%3Dwrap%3Bhtml%3D1%3BfillColor%3D%23f5f5f5%3BstrokeColor%3D%23666666%3BfontColor%3D%23333333%3B%22%20vertex%3D%221%22%20parent%3D%221%22%3E%3CmxGeometry%20x%3D%2280%22%20y%3D%2240%22%20width%3D%22120%22%20height%3D%2240%22%20as%3D%22geometry%22%2F%3E%3C%2FmxCell%3E%3C%2Froot%3E%3C%2FmxGraphModel%3E&lt;/span&gt;" style="rounded=0;whiteSpace=wrap;html=1;fillColor=#dae8fc;strokeColor=#6c8ebf;" parent="1" vertex="1">
          <mxGeometry x="1240" y="360" width="160" height="20" as="geometry" />
        </mxCell>
        <mxCell id="XwEQovFYGwXoTj2P0Iut-235" value="&lt;font style=&quot;font-size: 12px&quot;&gt;Trinium Trioxide x4&lt;/font&gt;" style="rounded=0;whiteSpace=wrap;html=1;fillColor=#f8cecc;strokeColor=#b85450;" parent="1" vertex="1">
          <mxGeometry x="1240" y="380" width="160" height="20" as="geometry" />
        </mxCell>
        <mxCell id="XwEQovFYGwXoTj2P0Iut-236" value="&lt;font style=&quot;font-size: 12px&quot;&gt;Rariest Earth Metal Dust x3&lt;/font&gt;" style="rounded=0;whiteSpace=wrap;html=1;fillColor=#f8cecc;strokeColor=#b85450;" parent="1" vertex="1">
          <mxGeometry x="1240" y="400" width="160" height="20" as="geometry" />
        </mxCell>
        <mxCell id="XwEQovFYGwXoTj2P0Iut-237" value="" style="endArrow=classic;html=1;startSize=10;endSize=10;exitX=1;exitY=0.5;exitDx=0;exitDy=0;entryX=0;entryY=0.5;entryDx=0;entryDy=0;rounded=0;strokeWidth=3;" parent="1" source="XwEQovFYGwXoTj2P0Iut-176" target="XwEQovFYGwXoTj2P0Iut-223" edge="1">
          <mxGeometry width="50" height="50" relative="1" as="geometry">
            <mxPoint x="1200" y="430" as="sourcePoint" />
            <mxPoint x="1250" y="380" as="targetPoint" />
            <Array as="points">
              <mxPoint x="1200" y="390" />
              <mxPoint x="1200" y="310" />
            </Array>
          </mxGeometry>
        </mxCell>
        <mxCell id="XwEQovFYGwXoTj2P0Iut-238" value="" style="endArrow=none;html=1;startSize=6;endSize=6;rounded=0;endFill=0;dashed=1;" parent="1" edge="1">
          <mxGeometry width="50" height="50" relative="1" as="geometry">
            <mxPoint x="1400" y="410" as="sourcePoint" />
            <mxPoint x="480" y="370" as="targetPoint" />
            <Array as="points">
              <mxPoint x="1420" y="410" />
              <mxPoint x="1420" y="430" />
              <mxPoint x="480" y="430" />
            </Array>
          </mxGeometry>
        </mxCell>
        <mxCell id="XwEQovFYGwXoTj2P0Iut-239" value="Chemical Reactor" style="rounded=0;whiteSpace=wrap;html=1;fillColor=#f5f5f5;strokeColor=#666666;fontColor=#333333;" parent="1" vertex="1">
          <mxGeometry x="1480" y="280" width="160" height="20" as="geometry" />
        </mxCell>
        <mxCell id="XwEQovFYGwXoTj2P0Iut-242" value="480 eu/t&lt;span style=&quot;color: rgba(0 , 0 , 0 , 0) ; font-family: monospace ; font-size: 0px&quot;&gt;%3CmxGraphModel%3E%3Croot%3E%3CmxCell%20id%3D%220%22%2F%3E%3CmxCell%20id%3D%221%22%20parent%3D%220%22%2F%3E%3CmxCell%20id%3D%222%22%20value%3D%22Mixer%22%20style%3D%22rounded%3D0%3BwhiteSpace%3Dwrap%3Bhtml%3D1%3BfillColor%3D%23f5f5f5%3BstrokeColor%3D%23666666%3BfontColor%3D%23333333%3B%22%20vertex%3D%221%22%20parent%3D%221%22%3E%3CmxGeometry%20x%3D%2280%22%20y%3D%2240%22%20width%3D%22120%22%20height%3D%2240%22%20as%3D%22geometry%22%2F%3E%3C%2FmxCell%3E%3C%2Froot%3E%3C%2FmxGraphModel%3E&lt;/span&gt;" style="rounded=0;whiteSpace=wrap;html=1;fillColor=#dae8fc;strokeColor=#6c8ebf;" parent="1" vertex="1">
          <mxGeometry x="1480" y="340" width="160" height="20" as="geometry" />
        </mxCell>
        <mxCell id="XwEQovFYGwXoTj2P0Iut-243" value="200 t&lt;span style=&quot;color: rgba(0 , 0 , 0 , 0) ; font-family: monospace ; font-size: 0px&quot;&gt;%3CmxGraphModel%3E%3Croot%3E%3CmxCell%20id%3D%220%22%2F%3E%3CmxCell%20id%3D%221%22%20parent%3D%220%22%2F%3E%3CmxCell%20id%3D%222%22%20value%3D%22Mixer%22%20style%3D%22rounded%3D0%3BwhiteSpace%3Dwrap%3Bhtml%3D1%3BfillColor%3D%23f5f5f5%3BstrokeColor%3D%23666666%3BfontColor%3D%23333333%3B%22%20vertex%3D%221%22%20parent%3D%221%22%3E%3CmxGeometry%20x%3D%2280%22%20y%3D%2240%22%20width%3D%22120%22%20height%3D%2240%22%20as%3D%22geometry%22%2F%3E%3C%2FmxCell%3E%3C%2Froot%3E%3C%2FmxGraphModel%3E&lt;/span&gt;" style="rounded=0;whiteSpace=wrap;html=1;fillColor=#dae8fc;strokeColor=#6c8ebf;" parent="1" vertex="1">
          <mxGeometry x="1480" y="360" width="160" height="20" as="geometry" />
        </mxCell>
        <mxCell id="XwEQovFYGwXoTj2P0Iut-244" value="&lt;font style=&quot;font-size: 12px&quot;&gt;Trinium Trioxide x4&lt;/font&gt;" style="rounded=0;whiteSpace=wrap;html=1;fillColor=#d5e8d4;strokeColor=#82b366;" parent="1" vertex="1">
          <mxGeometry x="1480" y="300" width="160" height="20" as="geometry" />
        </mxCell>
        <mxCell id="XwEQovFYGwXoTj2P0Iut-245" value="&lt;font style=&quot;font-size: 12px&quot;&gt;Hydrogen x6000L&lt;/font&gt;" style="rounded=0;whiteSpace=wrap;html=1;fillColor=#d5e8d4;strokeColor=#82b366;" parent="1" vertex="1">
          <mxGeometry x="1480" y="320" width="160" height="20" as="geometry" />
        </mxCell>
        <mxCell id="XwEQovFYGwXoTj2P0Iut-246" value="&lt;font style=&quot;font-size: 12px&quot;&gt;Trinium x1&lt;/font&gt;" style="rounded=0;whiteSpace=wrap;html=1;fillColor=#f8cecc;strokeColor=#b85450;" parent="1" vertex="1">
          <mxGeometry x="1480" y="380" width="160" height="20" as="geometry" />
        </mxCell>
        <mxCell id="XwEQovFYGwXoTj2P0Iut-247" value="&lt;font style=&quot;font-size: 12px&quot;&gt;Steam x3000L&lt;/font&gt;" style="rounded=0;whiteSpace=wrap;html=1;fillColor=#f8cecc;strokeColor=#b85450;" parent="1" vertex="1">
          <mxGeometry x="1480" y="400" width="160" height="20" as="geometry" />
        </mxCell>
        <mxCell id="XwEQovFYGwXoTj2P0Iut-248" value="" style="endArrow=classic;html=1;startSize=10;endSize=10;exitX=1;exitY=0.5;exitDx=0;exitDy=0;entryX=0;entryY=0.5;entryDx=0;entryDy=0;rounded=0;strokeWidth=3;" parent="1" source="XwEQovFYGwXoTj2P0Iut-235" target="XwEQovFYGwXoTj2P0Iut-244" edge="1">
          <mxGeometry width="50" height="50" relative="1" as="geometry">
            <mxPoint x="1470" y="420" as="sourcePoint" />
            <mxPoint x="1520" y="370" as="targetPoint" />
            <Array as="points">
              <mxPoint x="1440" y="390" />
              <mxPoint x="1440" y="310" />
            </Array>
          </mxGeometry>
        </mxCell>
        <mxCell id="XwEQovFYGwXoTj2P0Iut-249" value="&lt;font style=&quot;font-size: 24px&quot;&gt;TRINIUM PROCESSING&lt;/font&gt;" style="text;html=1;strokeColor=none;fillColor=none;align=center;verticalAlign=middle;whiteSpace=wrap;rounded=0;" parent="1" vertex="1">
          <mxGeometry x="680" y="30" width="320" height="20" as="geometry" />
        </mxCell>
      </root>
    </mxGraphModel>
  </diagram>
</mxfile>
